<?xml version="1.0" standalone="no"?>
<!DOCTYPE svg PUBLIC "-//W3C//DTD SVG 1.1//EN" "http://www.w3.org/Graphics/SVG/1.1/DTD/svg11.dtd" >
<svg xmlns="http://www.w3.org/2000/svg" xmlns:xlink="http://www.w3.org/1999/xlink" version="1.1">
<metadata>
Created by FontForge 20170812 at Thu Dec 17 00:49:51 2020
 By www-data
DIN 2014 is a contemporary version of a well-known DIN typeface. The Regular performs well in long text settings, while Light and Bold faces are extremely legible at large sizes. Type family spans 18 faces: 6 Upright with the matching Italics of normal width and 6 Narrow ones. The typeface was designed by Vasily Biryukov and released by Paratype in 2015.
</metadata>
<defs>
<font id="DIN2014-ExtraLight" horiz-adv-x="480" >
  <font-face 
    font-family="DIN 2014 Extra Light"
    font-weight="300"
    font-stretch="normal"
    units-per-em="1000"
    panose-1="2 11 3 4 2 2 2 2 2 4"
    ascent="750"
    descent="-250"
    x-height="500"
    cap-height="690"
    bbox="-45 -196 1007 899"
    underline-thickness="50"
    underline-position="-100"
    stemh="30"
    stemv="30"
    unicode-range="U+0020-E006"
  />
<missing-glyph horiz-adv-x="250" 
 />
    <glyph glyph-name="fi" unicode="fi" horiz-adv-x="465" 
d="M320 0v470h-195v-470h-30v470h-64v30h64v36c0 104 30 154 132 154h23v-30h-20c-94 0 -105 -45 -105 -124v-36h225v-500h-30z" />
    <glyph glyph-name="fl" unicode="fl" horiz-adv-x="510" 
d="M320 154v506h-90c-94 0 -105 -45 -105 -124v-36h125v-30h-125v-470h-30v470h-64v30h64v36c0 104 30 154 132 154h123v-536c0 -79 11 -124 105 -124v-30c-104 0 -135 50 -135 154z" />
    <glyph glyph-name=".notdef" horiz-adv-x="250" 
 />
    <glyph glyph-name="space" unicode=" " horiz-adv-x="250" 
 />
    <glyph glyph-name="exclam" unicode="!" horiz-adv-x="180" 
d="M105 690v-531h-30v531h30zM110 0v40h-40v-40h40z" />
    <glyph glyph-name="quotedbl" unicode="&#x22;" horiz-adv-x="246" 
d="M80 690v-169h-30v169h30zM196 690v-169h-30v169h30z" />
    <glyph glyph-name="numbersign" unicode="#" horiz-adv-x="555" 
d="M12 470h144l41 220h31l-41 -220h206l42 220h31l-41 -220h130v-30h-136l-34 -180h133v-30h-138l-43 -230h-31l43 230h-207l-42 -230h-31l42 230h-136v30h142l33 180h-138v30zM181 440l-33 -180h206l34 180h-207z" />
    <glyph glyph-name="dollar" unicode="$" 
d="M439 583l-26 -15c-34 60 -65 93 -152 97v-306c122 -33 190 -78 190 -197c0 -84 -47 -164 -190 -168v-110h-30v111c-96 4 -151 41 -198 112l24 16c36 -52 75 -94 174 -99v311c-116 31 -183 84 -183 191c0 92 46 166 183 170v116h30v-117c92 -4 140 -40 178 -112zM421 162
c0 89 -44 136 -160 166v-304c119 4 160 65 160 138zM78 526c0 -99 67 -134 153 -159v299c-98 -3 -153 -46 -153 -140z" />
    <glyph glyph-name="percent" unicode="%" horiz-adv-x="720" 
d="M530 690h34l-385 -690h-35zM164 372c76 0 104 52 104 117v63c0 77 -39 115 -104 115s-104 -38 -104 -115v-63c0 -65 28 -117 104 -117zM164 342c-86 0 -134 50 -134 147v63c0 97 50 145 134 145s134 -48 134 -145v-63c0 -97 -48 -147 -134 -147zM556 24
c76 0 104 52 104 117v63c0 77 -39 115 -104 115s-104 -38 -104 -115v-63c0 -65 28 -117 104 -117zM556 -6c-86 0 -134 50 -134 147v63c0 97 50 145 134 145s134 -48 134 -145v-63c0 -97 -48 -147 -134 -147z" />
    <glyph glyph-name="ampersand" unicode="&#x26;" horiz-adv-x="641" 
d="M50 179c0 98 72 157 147 210c-49 55 -77 105 -77 167c0 88 58 140 137 140c92 0 130 -57 130 -122c0 -85 -72 -138 -146 -190l212 -243c30 52 46 116 46 181h30c0 -71 -19 -145 -56 -204l103 -118h-41l-80 92c-45 -59 -111 -98 -197 -98c-140 0 -208 94 -208 185zM258 24
c78 0 137 36 178 90l-220 253c-70 -51 -136 -104 -136 -188c0 -94 72 -155 178 -155zM150 556c0 -70 43 -119 72 -150c70 49 135 96 135 168c0 52 -30 92 -100 92c-62 0 -107 -40 -107 -110z" />
    <glyph glyph-name="quotesingle" unicode="'" horiz-adv-x="130" 
d="M80 690v-169h-30v169h30z" />
    <glyph glyph-name="parenleft" unicode="(" horiz-adv-x="286" 
d="M256 -92l-19 -24c-133 103 -157 167 -157 278v372c0 111 24 175 157 278l19 -24c-136 -107 -146 -165 -146 -273v-334c0 -108 10 -166 146 -273z" />
    <glyph glyph-name="parenright" unicode=")" horiz-adv-x="286" 
d="M49 -116l-19 24c136 107 146 165 146 273v334c0 108 -10 166 -146 273l19 24c133 -103 157 -167 157 -278v-372c0 -111 -24 -175 -157 -278z" />
    <glyph glyph-name="asterisk" unicode="*" horiz-adv-x="429" 
d="M221 680l-4 -145l124 76l15 -26l-127 -70l127 -69l-15 -26l-124 76l4 -145h-30l3 144l-123 -75l-15 26l127 69l-127 70l15 26l123 -76l-3 145h30z" />
    <glyph glyph-name="plus" unicode="+" 
d="M56 339v30h169v170h30v-170h170v-30h-170v-169h-30v169h-169z" />
    <glyph glyph-name="comma" unicode="," horiz-adv-x="180" 
d="M110 40v-110l-40 -35v145h40z" />
    <glyph glyph-name="hyphen" unicode="-" horiz-adv-x="299" 
d="M30 274v30h239v-30h-239z" />
    <glyph glyph-name="period" unicode="." horiz-adv-x="186" 
d="M116 46v-46h-46v46h46z" />
    <glyph glyph-name="slash" unicode="/" horiz-adv-x="443" 
d="M77 -116h-32l336 928h32z" />
    <glyph glyph-name="zero" unicode="0" 
d="M428 193c0 -127 -84 -199 -188 -199s-188 72 -188 200v302c0 128 84 200 188 200s188 -72 188 -199v-304zM82 497v-304c0 -106 67 -169 158 -169s158 63 158 169v304c0 106 -67 169 -158 169s-158 -63 -158 -169z" />
    <glyph glyph-name="one" unicode="1" 
d="M264 690v-690h-30v649l-99 -71v36l99 76h30z" />
    <glyph glyph-name="two" unicode="2" 
d="M433 30v-30h-385v24l253 299c74 88 104 136 104 188c0 103 -78 155 -158 155c-86 0 -155 -53 -158 -155h-30c0 114 85 185 188 185c104 0 188 -71 188 -189c0 -76 -67 -148 -129 -222l-214 -255h341z" />
    <glyph glyph-name="three" unicode="3" 
d="M196 341v30h33c123 0 176 56 176 146c0 83 -62 149 -158 149c-91 0 -154 -61 -157 -146h-30c0 109 89 176 187 176c109 0 188 -76 188 -179c0 -97 -57 -144 -119 -161c73 -20 129 -84 129 -172c0 -109 -75 -190 -191 -190c-126 0 -196 77 -203 181h30
c10 -91 63 -151 173 -151c91 0 161 62 161 158c0 97 -63 159 -186 159h-33z" />
    <glyph glyph-name="four" unicode="4" 
d="M285 690h33l-247 -524h282v227h30v-227h76v-30h-76v-136h-30v136h-318v24z" />
    <glyph glyph-name="five" unicode="5" 
d="M243 438c-71 0 -114 -50 -141 -107h-26v359h330v-30h-300v-267c28 43 77 75 139 75c136 0 190 -97 190 -252c0 -136 -67 -222 -192 -222c-101 0 -176 75 -183 170h30c8 -83 75 -140 153 -140c99 0 162 53 162 192c0 144 -48 222 -162 222z" />
    <glyph glyph-name="six" unicode="6" 
d="M245 402c110 0 187 -83 187 -202c0 -122 -77 -206 -189 -206c-110 0 -189 84 -189 204c0 60 25 109 46 158l143 334h34l-142 -322c29 21 68 34 110 34zM84 200c0 -107 63 -176 159 -176c94 0 159 69 159 176c0 104 -65 172 -159 172c-96 0 -159 -68 -159 -172z" />
    <glyph glyph-name="seven" unicode="7" 
d="M84 521h-30v169h368v-30l-236 -660h-33l237 660h-306v-139z" />
    <glyph glyph-name="eight" unicode="8" 
d="M81 182c0 -88 70 -158 158 -158s159 70 159 158s-71 159 -159 159s-158 -71 -158 -159zM92 518c0 -82 65 -147 147 -147s148 65 148 147s-66 148 -148 148s-147 -66 -147 -148zM51 182c0 78 47 146 115 174c-61 28 -104 90 -104 162c0 98 79 178 177 178
s178 -80 178 -178c0 -72 -44 -134 -106 -162c69 -28 117 -96 117 -174c0 -104 -85 -188 -189 -188s-188 84 -188 188z" />
    <glyph glyph-name="nine" unicode="9" 
d="M237 288c-112 0 -189 83 -189 202c0 122 77 206 189 206c110 0 189 -84 189 -203c0 -61 -24 -110 -45 -159l-144 -334h-34l142 322c-31 -23 -59 -34 -108 -34zM396 490c0 107 -63 176 -159 176c-94 0 -159 -69 -159 -176c0 -104 65 -172 159 -172c96 0 159 68 159 172z
" />
    <glyph glyph-name="colon" unicode=":" horiz-adv-x="180" 
d="M110 40v-40h-40v40h40zM110 500v-40h-40v40h40z" />
    <glyph glyph-name="semicolon" unicode=";" horiz-adv-x="180" 
d="M110 40v-110l-40 -35v145h40zM110 500v-40h-40v40h40z" />
    <glyph glyph-name="less" unicode="&#x3c;" horiz-adv-x="385" 
d="M345 515l-269 -162l269 -161v-35l-305 183v27l305 183v-35z" />
    <glyph glyph-name="equal" unicode="=" horiz-adv-x="529" 
d="M70 420v31h389v-31h-389zM70 256v31h389v-31h-389z" />
    <glyph glyph-name="greater" unicode="&#x3e;" horiz-adv-x="385" 
d="M309 353l-269 162v35l305 -183v-27l-305 -183v35z" />
    <glyph glyph-name="question" unicode="?" horiz-adv-x="487" 
d="M258 159h-30v59c0 36 7 63 34 88l47 43c65 59 96 98 96 162c0 103 -78 155 -158 155c-86 0 -155 -53 -158 -155h-30c0 114 85 185 188 185c104 0 188 -71 188 -189c0 -82 -63 -141 -106 -180l-42 -38c-22 -20 -29 -35 -29 -71v-59zM263 0v40h-40v-40h40z" />
    <glyph glyph-name="at" unicode="@" horiz-adv-x="898" 
d="M610 484v-259c0 -115 43 -137 87 -137c80 0 121 80 121 188c0 273 -194 379 -369 379c-233 0 -369 -181 -369 -379c0 -249 188 -378 380 -378c72 0 166 14 231 59l14 -26c-35 -25 -122 -63 -245 -63c-209 0 -410 143 -410 408c0 257 192 409 399 409
c212 0 399 -149 399 -409c0 -123 -48 -218 -151 -218c-56 0 -94 25 -109 79c-20 -54 -63 -79 -149 -79c-107 0 -158 67 -158 184v64c0 127 59 183 158 183c76 0 118 -23 141 -66v61h30zM446 88c99 0 131 49 134 139v87c-2 102 -43 145 -134 145c-94 0 -135 -44 -135 -153
v-64c0 -102 38 -154 135 -154z" />
    <glyph glyph-name="A" unicode="A" horiz-adv-x="522" 
d="M47 0h-32l232 690h28l232 -690h-32l-60 178h-308zM261 635l-144 -427h288z" />
    <glyph glyph-name="B" unicode="&#xe000;" horiz-adv-x="596" 
d="M95 690h198c154 0 231 -61 231 -173c0 -82 -57 -141 -124 -157c88 -21 146 -79 146 -173c0 -89 -61 -187 -228 -187h-223v690zM125 344v-314h193c135 0 198 70 198 157c0 102 -71 157 -219 157h-172zM125 660v-286h188c128 0 181 68 181 143c0 78 -41 143 -201 143h-168z
" />
    <glyph glyph-name="B" unicode="B" horiz-adv-x="596" 
d="M95 690h198c154 0 231 -61 231 -173c0 -82 -57 -141 -124 -157c88 -21 146 -79 146 -173c0 -89 -61 -187 -228 -187h-223v690zM125 344v-314h193c135 0 198 70 198 157c0 102 -71 157 -219 157h-172zM125 660v-286h188c128 0 181 68 181 143c0 78 -41 143 -201 143h-168z
" />
    <glyph glyph-name="C" unicode="C" horiz-adv-x="583" 
d="M538 489h-30c-22 127 -104 177 -208 177c-129 0 -210 -70 -210 -275v-92c0 -206 82 -275 210 -275c110 0 187 63 208 181h29c-21 -155 -131 -211 -237 -211c-147 0 -240 82 -240 305v92c0 223 93 305 240 305c111 0 217 -56 238 -207z" />
    <glyph glyph-name="D" unicode="D" horiz-adv-x="605" 
d="M295 0h-200v690h200c153 0 250 -76 250 -299v-92c0 -223 -97 -299 -250 -299zM295 30c130 0 220 57 220 269v92c0 207 -87 269 -220 269h-170v-630h170z" />
    <glyph glyph-name="E" unicode="&#xe001;" horiz-adv-x="546" 
d="M95 690h396v-30h-366v-288h336v-30h-336v-312h366v-30h-396v690z" />
    <glyph glyph-name="E" unicode="E" horiz-adv-x="546" 
d="M95 690h396v-30h-366v-288h336v-30h-336v-312h366v-30h-396v690z" />
    <glyph glyph-name="F" unicode="F" horiz-adv-x="541" 
d="M95 690h396v-30h-366v-304h336v-30h-336v-326h-30v690z" />
    <glyph glyph-name="G" unicode="G" horiz-adv-x="604" 
d="M303 325h241v-16c0 -223 -94 -315 -244 -315c-147 0 -240 82 -240 305v92c0 223 93 305 240 305c111 0 217 -56 238 -207h-30c-22 127 -104 177 -208 177c-128 0 -210 -70 -210 -275v-92c0 -205 82 -275 210 -275c127 0 210 76 214 271h-211v30z" />
    <glyph glyph-name="H" unicode="H" horiz-adv-x="638" 
d="M125 690v-316h388v316h30v-690h-30v344h-388v-344h-30v690h30z" />
    <glyph glyph-name="I" unicode="I" horiz-adv-x="240" 
d="M135 690v-690h-30v690h30z" />
    <glyph glyph-name="J" unicode="J" horiz-adv-x="505" 
d="M15 80l27 14c36 -48 82 -70 146 -70c137 0 192 90 192 263v403h30v-404c0 -210 -83 -292 -222 -292c-70 0 -135 26 -173 86z" />
    <glyph glyph-name="K" unicode="K" horiz-adv-x="601" 
d="M591 0h-37l-275 392l-154 -176v-216h-30v690h30v-428l374 428h41l-241 -275z" />
    <glyph glyph-name="L" unicode="L" horiz-adv-x="501" 
d="M125 690v-660h366v-30h-396v690h30z" />
    <glyph glyph-name="M" unicode="M" horiz-adv-x="752" 
d="M123 690l253 -488l253 488h28v-690h-30v621l-237 -457h-28l-237 457v-621h-30v690h28z" />
    <glyph glyph-name="N" unicode="N" horiz-adv-x="638" 
d="M513 690h30v-690h-28l-390 626v-626h-30v690h28l390 -631v631z" />
    <glyph glyph-name="O" unicode="O" horiz-adv-x="600" 
d="M540 299c0 -213 -97 -305 -240 -305s-240 92 -240 305v92c0 212 97 305 240 305s240 -93 240 -305v-92zM90 391v-92c0 -202 90 -275 210 -275s210 73 210 275v92c0 202 -90 275 -210 275s-210 -73 -210 -275z" />
    <glyph glyph-name="P" unicode="P" horiz-adv-x="586" 
d="M295 283h-170v-283h-30v690h200c159 0 251 -76 251 -204c0 -127 -91 -203 -251 -203zM125 313h170c149 0 221 64 221 173c0 110 -72 174 -221 174h-170v-347z" />
    <glyph glyph-name="Q" unicode="Q" horiz-adv-x="600" 
d="M540 299c0 -87 -17 -154 -46 -203l92 -86l-19 -20l-89 83c-42 -54 -104 -79 -178 -79c-143 0 -240 92 -240 305v92c0 212 97 305 240 305s240 -93 240 -305v-92zM90 391v-92c0 -202 90 -275 210 -275c63 0 118 20 156 69l-133 125l21 22l128 -122c24 43 38 102 38 181v92
c0 202 -90 275 -210 275s-210 -73 -210 -275z" />
    <glyph glyph-name="R" unicode="R" horiz-adv-x="604" 
d="M564 0h-34l-163 299c-19 -3 -40 -4 -62 -4h-180v-295h-30v690h210c153 0 241 -69 241 -198c0 -99 -53 -163 -148 -187zM125 325h180c126 0 211 46 211 167c0 120 -85 168 -211 168h-180v-335z" />
    <glyph glyph-name="S" unicode="&#xe002;" horiz-adv-x="568" 
d="M501 583l-25 -17c-35 58 -91 100 -194 100c-109 0 -182 -43 -182 -140c0 -117 97 -139 196 -165c127 -33 217 -67 217 -199c0 -86 -64 -168 -222 -168c-107 0 -186 38 -236 113l24 17c40 -54 96 -100 212 -100c133 0 192 63 192 138c0 102 -62 139 -192 169
c-128 30 -221 68 -221 195c0 94 62 170 213 170c105 0 171 -37 218 -113z" />
    <glyph glyph-name="S" unicode="S" horiz-adv-x="568" 
d="M501 583l-25 -17c-35 58 -91 100 -194 100c-109 0 -182 -43 -182 -140c0 -117 97 -139 196 -165c127 -33 217 -67 217 -199c0 -86 -64 -168 -222 -168c-107 0 -186 38 -236 113l24 17c40 -54 96 -100 212 -100c133 0 192 63 192 138c0 102 -62 139 -192 169
c-128 30 -221 68 -221 195c0 94 62 170 213 170c105 0 171 -37 218 -113z" />
    <glyph glyph-name="T" unicode="T" horiz-adv-x="516" 
d="M15 690h486v-30h-228v-660h-30v660h-228v30z" />
    <glyph glyph-name="U" unicode="U" horiz-adv-x="670" 
d="M335 -6c-147 0 -240 85 -240 288v408h30v-408c0 -168 74 -258 210 -258s210 90 210 258v408h30v-408c0 -203 -93 -288 -240 -288z" />
    <glyph glyph-name="V" unicode="V" horiz-adv-x="548" 
d="M10 690h32l232 -641l232 641h32l-250 -690h-28z" />
    <glyph glyph-name="W" unicode="W" horiz-adv-x="797" 
d="M10 690h31l158 -643l183 643h32l184 -643l158 643h31l-170 -690h-37l-182 636l-181 -636h-37z" />
    <glyph glyph-name="X" unicode="X" horiz-adv-x="552" 
d="M70 0h-36l224 359l-207 331h36l189 -304l189 304h36l-207 -331l224 -359h-36l-206 331z" />
    <glyph glyph-name="Y" unicode="Y" horiz-adv-x="516" 
d="M10 690h35l213 -348l213 348h35l-233 -381v-309h-30v309z" />
    <glyph glyph-name="Z" unicode="Z" horiz-adv-x="509" 
d="M35 690h429v-28l-394 -632h404v-30h-439v28l393 632h-393v30z" />
    <glyph glyph-name="bracketleft" unicode="[" horiz-adv-x="275" 
d="M85 -60v810h145v-30h-115v-750h115v-30h-145z" />
    <glyph glyph-name="backslash" unicode="\" horiz-adv-x="444" 
d="M30 812h33l336 -928h-33z" />
    <glyph glyph-name="bracketright" unicode="]" horiz-adv-x="275" 
d="M45 720v30h145v-810h-145v30h115v750h-115z" />
    <glyph glyph-name="asciicircum" unicode="^" horiz-adv-x="454" 
d="M191 690h38l174 -253h-38l-155 228l-155 -228h-38z" />
    <glyph glyph-name="underscore" unicode="_" horiz-adv-x="526" 
d="M0 -93h526v-30h-526v30z" />
    <glyph glyph-name="grave" unicode="`" horiz-adv-x="279" 
d="M117 725l80 -158h-30l-85 158h35z" />
    <glyph glyph-name="a" unicode="a" horiz-adv-x="481" 
d="M50 141c0 83 57 138 153 138h173v68c0 100 -35 129 -140 129c-60 0 -106 -2 -142 -63l-24 17c34 59 84 76 166 76c117 0 170 -35 170 -159v-347h-30v74c-28 -60 -94 -80 -157 -80c-106 0 -169 51 -169 147zM376 179v70h-173c-93 0 -123 -53 -123 -108
c0 -85 58 -117 139 -117c88 0 157 43 157 155z" />
    <glyph glyph-name="b" unicode="&#xe003;" horiz-adv-x="511" 
d="M105 690v-265c28 57 81 81 166 81c124 0 190 -72 190 -214v-82c0 -144 -66 -216 -190 -216c-85 0 -138 24 -166 81v-75h-30v690h30zM271 24c108 0 160 61 160 186v82c0 123 -52 184 -160 184c-130 0 -165 -72 -166 -177v-90c0 -110 33 -185 166 -185z" />
    <glyph glyph-name="b" unicode="b" horiz-adv-x="511" 
d="M105 690v-265c28 57 81 81 166 81c124 0 190 -72 190 -214v-82c0 -144 -66 -216 -190 -216c-85 0 -138 24 -166 81v-75h-30v690h30zM271 24c108 0 160 61 160 186v82c0 123 -52 184 -160 184c-130 0 -165 -72 -166 -177v-90c0 -110 33 -185 166 -185z" />
    <glyph glyph-name="c" unicode="c" horiz-adv-x="443" 
d="M398 90l25 -17c-34 -49 -91 -79 -167 -79c-131 0 -206 73 -206 216v82c0 142 77 214 206 214c71 0 128 -25 165 -75l-25 -17c-33 44 -86 62 -140 62c-111 0 -176 -61 -176 -184v-82c0 -111 52 -186 176 -186c55 0 107 18 142 66z" />
    <glyph glyph-name="d" unicode="d" horiz-adv-x="511" 
d="M406 425v265h30v-690h-30v75c-28 -57 -82 -81 -166 -81c-124 0 -190 72 -190 216v82c0 142 66 214 190 214c84 0 138 -24 166 -81zM240 24c133 0 166 75 166 185v90c-2 105 -37 177 -166 177c-108 0 -160 -61 -160 -184v-82c0 -125 52 -186 160 -186z" />
    <glyph glyph-name="e" unicode="e" horiz-adv-x="481" 
d="M426 242h-346v-32c0 -111 52 -186 176 -186c57 0 107 18 142 66l25 -17c-34 -49 -91 -79 -167 -79c-131 0 -206 78 -206 216v82c0 142 70 214 188 214s188 -72 188 -214v-50zM80 292v-20h316v20c0 124 -57 184 -158 184c-100 0 -158 -61 -158 -184z" />
    <glyph glyph-name="f" unicode="f" horiz-adv-x="285" 
d="M31 500h64v36c0 106 30 154 132 154h23v-30h-23c-94 0 -102 -47 -102 -131v-29h125v-30h-125v-470h-30v470h-64v30z" />
    <glyph glyph-name="g" unicode="g" horiz-adv-x="511" 
d="M50 210v82c0 142 66 214 190 214c84 0 138 -24 166 -81v75h30v-470c0 -138 -70 -226 -194 -226c-72 0 -125 30 -157 79l25 17c33 -48 81 -66 132 -66c115 0 164 85 164 196v45c-28 -57 -82 -81 -166 -81c-124 0 -190 72 -190 216zM240 24c129 0 164 71 166 177v98
c-2 105 -37 177 -166 177c-108 0 -160 -61 -160 -184v-82c0 -125 52 -186 160 -186z" />
    <glyph glyph-name="h" unicode="h" horiz-adv-x="526" 
d="M75 0v690h30v-274c29 58 86 90 161 90c115 0 185 -81 185 -224v-282h-30v282c0 126 -59 194 -155 194c-114 0 -159 -71 -161 -185v-291h-30z" />
    <glyph glyph-name="i" unicode="i" horiz-adv-x="210" 
d="M90 0v500h30v-500h-30zM83 646v44h44v-44h-44z" />
    <glyph glyph-name="j" unicode="j" horiz-adv-x="215" 
d="M135 500v-536c0 -104 -31 -154 -135 -154v30c94 0 105 45 105 140v520h30zM98 646v44h44v-44h-44z" />
    <glyph glyph-name="k" unicode="k" horiz-adv-x="492" 
d="M396 500h40l-213 -219l249 -281h-40l-230 259l-97 -100v-159h-30v690h30v-489z" />
    <glyph glyph-name="l" unicode="l" horiz-adv-x="256" 
d="M75 151v539h30v-531c0 -87 13 -132 105 -132v-30c-104 0 -135 50 -135 154z" />
    <glyph glyph-name="m" unicode="m" horiz-adv-x="792" 
d="M75 0v500h30v-84c21 57 73 90 141 90c72 0 124 -40 150 -117c23 75 78 117 156 117c103 0 165 -81 165 -224v-282h-30v282c0 126 -51 194 -135 194c-98 0 -137 -68 -141 -177v-299h-30v282c0 126 -51 194 -135 194c-100 0 -139 -71 -141 -185v-291h-30z" />
    <glyph glyph-name="n" unicode="n" horiz-adv-x="526" 
d="M75 0v500h30v-84c28 57 85 90 161 90c115 0 185 -81 185 -224v-282h-30v282c0 126 -59 194 -155 194c-114 0 -159 -71 -161 -185v-291h-30z" />
    <glyph glyph-name="o" unicode="o" horiz-adv-x="496" 
d="M446 208c0 -142 -73 -214 -198 -214s-198 72 -198 214v84c0 142 73 214 198 214s198 -72 198 -214v-84zM416 208v84c0 124 -59 184 -168 184s-168 -60 -168 -184v-84c0 -124 59 -184 168 -184s168 60 168 184z" />
    <glyph glyph-name="p" unicode="p" horiz-adv-x="511" 
d="M461 292v-82c0 -144 -66 -216 -190 -216c-85 0 -138 24 -166 81v-265h-30v690h30v-75c28 57 81 81 166 81c124 0 190 -72 190 -214zM271 24c108 0 160 61 160 186v82c0 123 -52 184 -160 184c-130 0 -165 -72 -166 -177v-90c0 -110 33 -185 166 -185z" />
    <glyph glyph-name="q" unicode="q" horiz-adv-x="511" 
d="M50 210v82c0 142 66 214 190 214c84 0 138 -24 166 -81v75h30v-690h-30v265c-28 -57 -82 -81 -166 -81c-124 0 -190 72 -190 216zM240 24c133 0 166 75 166 185v90c-2 105 -37 177 -166 177c-108 0 -160 -61 -160 -184v-82c0 -125 52 -186 160 -186z" />
    <glyph glyph-name="r" unicode="r" horiz-adv-x="381" 
d="M240 476c-94 0 -135 -78 -135 -185v-291h-30v500h30v-84c22 56 71 90 137 90c62 0 104 -27 139 -70l-24 -19c-31 38 -66 59 -117 59z" />
    <glyph glyph-name="s" unicode="&#xe004;" horiz-adv-x="456" 
d="M391 423l-25 -17c-34 52 -71 70 -147 70s-139 -28 -139 -98c0 -82 75 -95 149 -108c100 -18 177 -48 177 -145c0 -69 -42 -131 -178 -131c-97 0 -147 31 -183 83l26 18c33 -48 74 -71 158 -71c88 0 147 26 147 101c0 74 -68 99 -169 118c-87 16 -157 41 -157 135
c0 79 61 128 169 128c77 0 135 -21 172 -83z" />
    <glyph glyph-name="s" unicode="s" horiz-adv-x="456" 
d="M391 423l-25 -17c-34 52 -71 70 -147 70s-139 -28 -139 -98c0 -82 75 -95 149 -108c100 -18 177 -48 177 -145c0 -69 -42 -131 -178 -131c-97 0 -147 31 -183 83l26 18c33 -48 74 -71 158 -71c88 0 147 26 147 101c0 74 -68 99 -169 118c-87 16 -157 41 -157 135
c0 79 61 128 169 128c77 0 135 -21 172 -83z" />
    <glyph glyph-name="t" unicode="t" horiz-adv-x="302" 
d="M31 470v30h64v110h30v-110h132v-30h-132v-306c0 -91 11 -134 105 -134h27v-30h-28c-104 0 -134 50 -134 154v316h-64z" />
    <glyph glyph-name="u" unicode="u" horiz-adv-x="526" 
d="M451 500v-500h-30v84c-28 -57 -85 -90 -161 -90c-115 0 -185 81 -185 224v282h30v-282c0 -126 59 -194 155 -194c114 0 161 73 161 187v289h30z" />
    <glyph glyph-name="v" unicode="v" horiz-adv-x="457" 
d="M415 500h32l-204 -500h-28l-205 500h32l187 -455z" />
    <glyph glyph-name="w" unicode="&#xe005;" horiz-adv-x="686" 
d="M503 0l-160 451l-160 -451h-28l-145 500h31l129 -446l159 446h28l159 -446l129 446h31l-145 -500h-28z" />
    <glyph glyph-name="w" unicode="w" horiz-adv-x="686" 
d="M503 0l-160 451l-160 -451h-28l-145 500h31l129 -446l159 446h28l159 -446l129 446h31l-145 -500h-28z" />
    <glyph glyph-name="x" unicode="x" horiz-adv-x="426" 
d="M406 0h-37l-156 231l-156 -231h-37l176 257l-166 243h37l146 -217l146 217h37l-166 -243z" />
    <glyph glyph-name="y" unicode="&#xe006;" horiz-adv-x="452" 
d="M74 -190v30c90 0 110 41 147 144l2 7l-213 509h33l150 -360l46 -105l167 465h31l-187 -523c-40 -120 -78 -167 -176 -167z" />
    <glyph glyph-name="y" unicode="y" horiz-adv-x="452" 
d="M74 -190v30c90 0 110 41 147 144l2 7l-213 509h33l150 -360l46 -105l167 465h31l-187 -523c-40 -120 -78 -167 -176 -167z" />
    <glyph glyph-name="z" unicode="z" horiz-adv-x="449" 
d="M50 24l309 446h-309v30h349v-24l-309 -446h309v-30h-349v24z" />
    <glyph glyph-name="braceleft" unicode="{" horiz-adv-x="316" 
d="M139 632v-216c0 -39 -11 -60 -35 -70c24 -10 35 -31 35 -70v-216c0 -103 46 -125 128 -125h9v-30h-3c-102 0 -164 25 -164 155v219c0 38 -15 52 -50 52h-19v30h19c35 0 50 14 50 52v219c0 130 62 155 164 155h3v-30h-9c-82 0 -128 -22 -128 -125z" />
    <glyph glyph-name="bar" unicode="|" horiz-adv-x="200" 
d="M115 812v-928h-30v928h30z" />
    <glyph glyph-name="braceright" unicode="}" horiz-adv-x="316" 
d="M177 416v216c0 103 -46 125 -128 125h-9v30h3c102 0 164 -25 164 -155v-188c0 -61 3 -83 50 -83h19v-30h-19c-35 0 -50 -14 -50 -52v-219c0 -131 -63 -156 -167 -155v30h9c82 0 128 22 128 125v216c0 39 11 60 35 70c-24 10 -35 31 -35 70z" />
    <glyph glyph-name="asciitilde" unicode="~" 
d="M326 295c-73 0 -108 50 -172 50c-48 0 -89 -22 -114 -51l-23 20c38 41 86 61 137 61c71 0 108 -50 172 -50c49 0 90 23 114 51l23 -20c-39 -42 -86 -61 -137 -61z" />
    <glyph glyph-name="uni00A0" unicode="&#xa0;" horiz-adv-x="250" 
 />
    <glyph glyph-name="exclamdown" unicode="&#xa1;" horiz-adv-x="216" 
d="M95 341v-531h-30v531h30zM100 500v-40h-40v40h40z" />
    <glyph glyph-name="cent" unicode="&#xa2;" 
d="M270 -116h-30v111c-121 5 -190 78 -190 215v82c0 136 70 207 190 213v117h30v-116c64 -3 116 -29 151 -75l-25 -17c-33 44 -86 62 -140 62c-111 0 -176 -61 -176 -184v-82c0 -111 52 -186 176 -186c55 0 107 18 142 66l25 -17c-32 -46 -84 -75 -153 -79v-110z" />
    <glyph glyph-name="sterling" unicode="&#xa3;" 
d="M56 0v30h71v336h-71v30h71v78c0 110 29 222 161 222c67 0 108 -28 145 -66l-24 -20c-37 42 -79 56 -121 56c-100 0 -131 -74 -131 -192v-78h156v-30h-156v-336h270v-30h-371z" />
    <glyph glyph-name="currency" unicode="&#xa4;" horiz-adv-x="656" 
d="M78 366c0 64 23 122 62 166l-80 80l21 21l79 -80c44 40 102 64 167 64c64 0 123 -24 168 -64l80 80l21 -21l-81 -81c39 -44 63 -102 63 -165c0 -64 -24 -122 -63 -166l81 -80l-21 -21l-81 80c-44 -39 -103 -63 -167 -63s-122 24 -166 63l-80 -80l-21 21l80 80
c-39 44 -62 102 -62 166zM108 366c0 -123 96 -220 219 -220s221 97 221 220s-98 221 -221 221s-219 -98 -219 -221z" />
    <glyph glyph-name="yen" unicode="&#xa5;" 
d="M37 200h188v109h-188v30h170l-185 351h34l184 -350l184 350h34l-186 -351h171v-30h-188v-109h188v-30h-188v-170h-30v170h-188v30z" />
    <glyph glyph-name="brokenbar" unicode="&#xa6;" horiz-adv-x="278" 
d="M161 243v-243h-30v243h30zM161 690v-243h-30v243h30z" />
    <glyph glyph-name="section" unicode="&#xa7;" horiz-adv-x="504" 
d="M89 -57h30c3 -62 40 -104 131 -104c81 0 132 35 132 106s-55 96 -164 126c-115 31 -158 88 -158 179c0 98 59 158 154 169c-86 29 -132 65 -132 136c0 80 63 136 162 136c105 0 159 -55 161 -134h-30c-3 62 -40 104 -131 104c-81 0 -132 -35 -132 -106s55 -96 164 -126
s158 -87 158 -179c0 -99 -60 -158 -155 -169c87 -30 133 -66 133 -136c0 -80 -63 -136 -162 -136c-105 0 -159 55 -161 134zM404 250c0 93 -67 141 -157 141c-88 0 -157 -44 -157 -141c0 -93 65 -141 157 -141c88 0 157 44 157 141z" />
    <glyph glyph-name="dieresis" unicode="&#xa8;" horiz-adv-x="373" 
d="M313 646h-44v44h44v-44zM103 646h-44v44h44v-44z" />
    <glyph glyph-name="copyright" unicode="&#xa9;" horiz-adv-x="1010" 
d="M65 250c0 246 197 440 440 440s440 -194 440 -440s-197 -440 -440 -440s-440 194 -440 440zM95 250c0 -230 183 -410 410 -410s410 180 410 410s-183 410 -410 410s-410 -180 -410 -410zM655 90l25 -17c-34 -49 -91 -79 -167 -79c-131 0 -206 73 -206 216v82
c0 142 77 214 206 214c71 0 128 -25 165 -75l-25 -17c-33 44 -86 62 -140 62c-111 0 -176 -61 -176 -184v-82c0 -111 52 -186 176 -186c55 0 107 18 142 66z" />
    <glyph glyph-name="ordfeminine" unicode="&#xaa;" horiz-adv-x="316" 
d="M35 466c0 68 45 92 108 92h89v28c0 59 -25 76 -84 76c-33 0 -63 -4 -81 -43l-25 18c20 36 52 55 107 55c73 0 113 -26 113 -101v-217h-30v45c-21 -37 -56 -49 -94 -49c-67 0 -103 35 -103 96zM232 495v33h-86c-62 0 -81 -21 -81 -64c0 -46 31 -64 76 -64
c44 0 91 36 91 95z" />
    <glyph glyph-name="guillemotleft" unicode="&#xab;" horiz-adv-x="519" 
d="M30 283l232 231v-42l-190 -189l190 -189v-42zM232 283l232 231v-42l-190 -189l190 -189v-42z" />
    <glyph glyph-name="logicalnot" unicode="&#xac;" horiz-adv-x="550" 
d="M482 201h-30v137h-383v30h413v-167z" />
    <glyph glyph-name="uni00AD" unicode="&#xad;" horiz-adv-x="299" 
d="M30 274v30h239v-30h-239z" />
    <glyph glyph-name="registered" unicode="&#xae;" horiz-adv-x="606" 
d="M50 501c0 139 114 253 253 253s253 -114 253 -253s-114 -253 -253 -253s-253 114 -253 253zM80 501c0 -123 100 -223 223 -223s223 100 223 223s-100 223 -223 223s-223 -100 -223 -223zM246 374h-30v261h87c72 0 97 -43 97 -79c0 -41 -22 -63 -58 -73l71 -109h-37
l-66 104h-64v-104zM246 508h57c51 0 67 19 67 48c0 24 -14 49 -67 49h-57v-97z" />
    <glyph glyph-name="macron" unicode="&#xaf;" horiz-adv-x="373" 
d="M62 612v30h249v-30h-249z" />
    <glyph glyph-name="degree" unicode="&#xb0;" horiz-adv-x="308" 
d="M20 559c0 76 60 134 134 134s134 -58 134 -134s-60 -134 -134 -134s-134 58 -134 134zM50 559c0 -59 46 -104 104 -104s104 45 104 104s-46 104 -104 104s-104 -45 -104 -104z" />
    <glyph glyph-name="plusminus" unicode="&#xb1;" 
d="M56 379v30h169v180h30v-180h170v-30h-170v-149h-30v149h-169zM56 149v30h369v-30h-369z" />
    <glyph glyph-name="twosuperior" unicode="&#xb2;" horiz-adv-x="278" 
d="M238 404v-30h-190v30l93 99c44 47 58 72 58 98c0 41 -28 62 -58 62c-32 0 -60 -26 -62 -67h-30c0 59 43 97 92 97c51 0 88 -36 88 -92c0 -42 -22 -68 -68 -117l-74 -80h151z" />
    <glyph glyph-name="threesuperior" unicode="&#xb3;" horiz-adv-x="301" 
d="M113 522v30h14c47 0 72 17 72 57c0 35 -24 54 -56 54c-37 0 -63 -19 -63 -58h-30c0 50 38 88 93 88c52 0 86 -31 86 -84c0 -37 -22 -68 -57 -71c40 -4 63 -37 63 -77c0 -57 -39 -90 -92 -90c-59 0 -94 42 -97 90h31c5 -35 25 -60 66 -60c35 0 61 19 61 60
c0 37 -20 61 -77 61h-14z" />
    <glyph glyph-name="acute" unicode="&#xb4;" horiz-adv-x="334" 
d="M109 567l80 158h35l-85 -158h-30z" />
    <glyph glyph-name="mu" unicode="&#xb5;" horiz-adv-x="526" 
d="M105 -137h-30v637h30v-273c0 -173 91 -203 154 -203c112 0 162 70 162 185v291h30v-500h-30v84c-31 -64 -95 -90 -162 -90c-71 0 -127 31 -154 90v-221z" />
    <glyph glyph-name="paragraph" unicode="&#xb6;" horiz-adv-x="534" 
d="M439 690v-880h-30v850h-144v-850h-30v500c-105 0 -190 85 -190 190s85 190 190 190h204z" />
    <glyph glyph-name="periodcentered" unicode="&#xb7;" horiz-adv-x="180" 
d="M110 368v-40h-40v40h40z" />
    <glyph glyph-name="cedilla" unicode="&#xb8;" horiz-adv-x="339" 
d="M127 -41l14 60l30 -2l-11 -37c49 -9 81 -35 81 -77c0 -55 -44 -82 -107 -82c-14 0 -28 1 -37 3l6 29c9 -1 20 -2 31 -2c43 0 77 12 77 52c0 33 -32 53 -84 56z" />
    <glyph glyph-name="onesuperior" unicode="&#xb9;" horiz-adv-x="277" 
d="M167 690v-316h-30v278l-57 -41v36l57 43h30z" />
    <glyph glyph-name="ordmasculine" unicode="&#xba;" horiz-adv-x="356" 
d="M291 560v-55c0 -80 -41 -134 -123 -134c-76 0 -122 49 -122 134v55c0 87 48 133 122 133c76 0 123 -45 123 -133zM168 401c58 0 93 36 93 104v55c0 76 -38 103 -93 103c-54 0 -92 -27 -92 -103v-55c0 -69 31 -104 92 -104z" />
    <glyph glyph-name="guillemotright" unicode="&#xbb;" horiz-adv-x="519" 
d="M257 514l232 -231l-232 -231v42l190 189l-190 189v42zM55 514l232 -231l-232 -231v42l190 189l-190 189v42z" />
    <glyph glyph-name="onequarter" unicode="&#xbc;" horiz-adv-x="603" 
d="M496 690h36l-474 -690h-37zM144 690v-316h-30v278l-57 -41v36l57 43h30zM441 316h33l-129 -215h126v66h30v-66h39v-30h-39v-71h-30v71h-161v33z" />
    <glyph glyph-name="onehalf" unicode="&#xbd;" horiz-adv-x="603" 
d="M496 690h36l-474 -690h-37zM144 690v-316h-30v278l-57 -41v36l57 43h30zM549 30v-30h-190v30l93 99c44 47 58 72 58 98c0 41 -28 62 -58 62c-32 0 -60 -26 -62 -67h-30c0 59 43 97 92 97c51 0 88 -36 88 -92c0 -42 -22 -68 -68 -117l-74 -80h151z" />
    <glyph glyph-name="threequarters" unicode="&#xbe;" horiz-adv-x="577" 
d="M496 690h36l-474 -690h-37zM441 316h33l-129 -215h126v66h30v-66h39v-30h-39v-71h-30v71h-161v33zM86 522v30h14c47 0 72 17 72 57c0 35 -24 54 -56 54c-37 0 -63 -19 -63 -58h-30c0 50 38 88 93 88c52 0 86 -31 86 -84c0 -37 -22 -68 -57 -71c40 -4 63 -37 63 -77
c0 -57 -39 -90 -92 -90c-59 0 -94 42 -97 90h31c5 -35 25 -60 66 -60c35 0 61 19 61 60c0 37 -20 61 -77 61h-14z" />
    <glyph glyph-name="questiondown" unicode="&#xbf;" horiz-adv-x="487" 
d="M236 341h30v-59c0 -36 -7 -63 -34 -88l-47 -43c-65 -59 -96 -98 -96 -162c0 -103 78 -155 158 -155c86 0 155 53 158 155h30c0 -114 -85 -185 -188 -185c-104 0 -188 71 -188 189c0 82 63 141 106 180l42 38c22 20 29 35 29 71v59zM231 460v40h40v-40h-40z" />
    <glyph glyph-name="Agrave" unicode="&#xc0;" horiz-adv-x="522" 
d="M47 0h-32l232 690h28l232 -690h-32l-60 178h-308zM261 635l-144 -427h288zM168 896h35l65 -129h-24z" />
    <glyph glyph-name="Aacute" unicode="&#xc1;" horiz-adv-x="522" 
d="M47 0h-32l232 690h28l232 -690h-32l-60 178h-308zM261 635l-144 -427h288zM253 767l65 129h35l-70 -129h-30z" />
    <glyph glyph-name="Acircumflex" unicode="&#xc2;" horiz-adv-x="522" 
d="M47 0h-32l232 690h28l232 -690h-32l-60 178h-308zM261 635l-144 -427h288zM245 899h32l149 -142h-44l-121 116l-121 -116h-44z" />
    <glyph glyph-name="Atilde" unicode="&#xc3;" horiz-adv-x="522" 
d="M47 0h-32l232 690h28l232 -690h-32l-60 178h-308zM261 635l-144 -427h288zM320 807c-48 0 -75 33 -116 33c-21 0 -46 -8 -71 -33l-23 19c25 26 55 44 94 44c46 0 72 -33 115 -33c19 0 49 9 70 33l23 -19c-19 -22 -54 -44 -92 -44z" />
    <glyph glyph-name="Adieresis" unicode="&#xc4;" horiz-adv-x="522" 
d="M47 0h-32l232 690h28l232 -690h-32l-60 178h-308zM261 635l-144 -427h288zM388 825h-44v44h44v-44zM178 825h-44v44h44v-44z" />
    <glyph glyph-name="Aring" unicode="&#xc5;" horiz-adv-x="580" 
d="M52 0h-32l222 662c-48 8 -85 44 -85 96c0 61 49 99 109 99c61 0 110 -38 110 -99c0 -52 -37 -88 -87 -96l223 -662h-32l-60 178h-308zM266 635l-144 -427h288zM187 758c0 -45 36 -68 79 -68c45 0 80 23 80 68c0 47 -35 69 -80 69c-43 0 -79 -22 -79 -69z" />
    <glyph glyph-name="AE" unicode="&#xc6;" horiz-adv-x="852" 
d="M45 0h-35l411 690h376v-30h-346v-288h316v-30h-316v-312h346v-30h-376v182h-268zM171 212h250v421z" />
    <glyph glyph-name="Ccedilla" unicode="&#xc7;" horiz-adv-x="583" 
d="M267 -42l9 37c-132 8 -216 94 -216 304v92c0 223 93 305 240 305c111 0 217 -56 238 -207h-30c-22 127 -104 177 -208 177c-129 0 -210 -70 -210 -275v-92c0 -206 82 -275 210 -275c110 0 187 63 208 181h29c-21 -153 -128 -209 -233 -211l-4 -15c49 -9 81 -35 81 -77
c0 -55 -44 -82 -107 -82c-14 0 -28 1 -37 3l6 29c9 -1 20 -2 31 -2c43 0 77 12 77 52c0 33 -32 53 -84 56z" />
    <glyph glyph-name="Egrave" unicode="&#xc8;" horiz-adv-x="546" 
d="M95 690h396v-30h-366v-288h336v-30h-336v-312h366v-30h-396v690zM237 896h35l65 -129h-24z" />
    <glyph glyph-name="Eacute" unicode="&#xc9;" horiz-adv-x="546" 
d="M95 690h396v-30h-366v-288h336v-30h-336v-312h366v-30h-396v690zM265 767l65 129h35l-70 -129h-30z" />
    <glyph glyph-name="Ecircumflex" unicode="&#xca;" horiz-adv-x="546" 
d="M95 690h396v-30h-366v-288h336v-30h-336v-312h366v-30h-396v690zM277 899h32l149 -142h-44l-121 116l-121 -116h-44z" />
    <glyph glyph-name="Edieresis" unicode="&#xcb;" horiz-adv-x="546" 
d="M95 690h396v-30h-366v-288h336v-30h-336v-312h366v-30h-396v690zM420 825h-44v44h44v-44zM210 825h-44v44h44v-44z" />
    <glyph glyph-name="Igrave" unicode="&#xcc;" horiz-adv-x="240" 
d="M135 690v-690h-30v690h30zM35 896h35l65 -129h-24z" />
    <glyph glyph-name="Iacute" unicode="&#xcd;" horiz-adv-x="240" 
d="M135 690v-690h-30v690h30zM105 767l65 129h35l-70 -129h-30z" />
    <glyph glyph-name="Icircumflex" unicode="&#xce;" horiz-adv-x="240" 
d="M135 690v-690h-30v690h30zM104 899h32l149 -142h-44l-121 116l-121 -116h-44z" />
    <glyph glyph-name="Idieresis" unicode="&#xcf;" horiz-adv-x="276" 
d="M125 690h-30v-690h30v690zM205 829h-40v40h40v-40zM55 829h-40v40h40v-40z" />
    <glyph glyph-name="Eth" unicode="&#xd0;" horiz-adv-x="593" 
d="M283 0h-200v342h-103v30h103v318h200c153 0 250 -76 250 -299v-92c0 -223 -97 -299 -250 -299zM283 30c130 0 220 57 220 269v92c0 207 -87 269 -220 269h-170v-288h216v-30h-216v-312h170z" />
    <glyph glyph-name="Ntilde" unicode="&#xd1;" horiz-adv-x="638" 
d="M513 690h30v-690h-28l-390 626v-626h-30v690h28l390 -631v631zM378 807c-48 0 -75 33 -116 33c-21 0 -46 -8 -71 -33l-23 19c25 26 55 44 94 44c46 0 72 -33 115 -33c19 0 49 9 70 33l23 -19c-19 -22 -54 -44 -92 -44z" />
    <glyph glyph-name="Ograve" unicode="&#xd2;" horiz-adv-x="600" 
d="M540 299c0 -213 -97 -305 -240 -305s-240 92 -240 305v92c0 212 97 305 240 305s240 -93 240 -305v-92zM90 391v-92c0 -202 90 -275 210 -275s210 73 210 275v92c0 202 -90 275 -210 275s-210 -73 -210 -275zM213 896h35l65 -129h-24z" />
    <glyph glyph-name="Oacute" unicode="&#xd3;" horiz-adv-x="600" 
d="M540 299c0 -213 -97 -305 -240 -305s-240 92 -240 305v92c0 212 97 305 240 305s240 -93 240 -305v-92zM90 391v-92c0 -202 90 -275 210 -275s210 73 210 275v92c0 202 -90 275 -210 275s-210 -73 -210 -275zM277 767l65 129h35l-70 -129h-30z" />
    <glyph glyph-name="Ocircumflex" unicode="&#xd4;" horiz-adv-x="600" 
d="M540 299c0 -213 -97 -305 -240 -305s-240 92 -240 305v92c0 212 97 305 240 305s240 -93 240 -305v-92zM90 391v-92c0 -202 90 -275 210 -275s210 73 210 275v92c0 202 -90 275 -210 275s-210 -73 -210 -275zM284 899h32l149 -142h-44l-121 116l-121 -116h-44z" />
    <glyph glyph-name="Otilde" unicode="&#xd5;" horiz-adv-x="600" 
d="M540 299c0 -213 -97 -305 -240 -305s-240 92 -240 305v92c0 212 97 305 240 305s240 -93 240 -305v-92zM90 391v-92c0 -202 90 -275 210 -275s210 73 210 275v92c0 202 -90 275 -210 275s-210 -73 -210 -275zM359 807c-48 0 -75 33 -116 33c-21 0 -46 -8 -71 -33l-23 19
c25 26 55 44 94 44c46 0 72 -33 115 -33c19 0 49 9 70 33l23 -19c-19 -22 -54 -44 -92 -44z" />
    <glyph glyph-name="Odieresis" unicode="&#xd6;" horiz-adv-x="600" 
d="M540 299c0 -213 -97 -305 -240 -305s-240 92 -240 305v92c0 212 97 305 240 305s240 -93 240 -305v-92zM90 391v-92c0 -202 90 -275 210 -275s210 73 210 275v92c0 202 -90 275 -210 275s-210 -73 -210 -275zM427 825h-44v44h44v-44zM217 825h-44v44h44v-44z" />
    <glyph glyph-name="multiply" unicode="&#xd7;" 
d="M120 213l-21 21l119 119l-120 121l21 21l120 -121l121 121l21 -21l-121 -121l120 -119l-21 -21l-120 119z" />
    <glyph glyph-name="Oslash" unicode="&#xd8;" horiz-adv-x="600" 
d="M153 -116h-32l51 142c-70 44 -112 132 -112 273v92c0 212 97 305 240 305c39 0 75 -7 107 -22l50 138h32l-56 -153c67 -45 107 -132 107 -268v-92c0 -213 -97 -305 -240 -305c-37 0 -71 6 -101 18zM90 391v-92c0 -128 36 -205 93 -243l214 590c-29 14 -62 20 -97 20
c-120 0 -210 -73 -210 -275zM510 391c0 123 -34 198 -87 238l-213 -588c27 -12 57 -17 90 -17c120 0 210 73 210 275v92z" />
    <glyph glyph-name="Ugrave" unicode="&#xd9;" horiz-adv-x="670" 
d="M335 -6c-147 0 -240 85 -240 288v408h30v-408c0 -168 74 -258 210 -258s210 90 210 258v408h30v-408c0 -203 -93 -288 -240 -288zM267 896h35l65 -129h-24z" />
    <glyph glyph-name="Uacute" unicode="&#xda;" horiz-adv-x="670" 
d="M335 -6c-147 0 -240 85 -240 288v408h30v-408c0 -168 74 -258 210 -258s210 90 210 258v408h30v-408c0 -203 -93 -288 -240 -288zM301 767l65 129h35l-70 -129h-30z" />
    <glyph glyph-name="Ucircumflex" unicode="&#xdb;" horiz-adv-x="670" 
d="M335 -6c-147 0 -240 85 -240 288v408h30v-408c0 -168 74 -258 210 -258s210 90 210 258v408h30v-408c0 -203 -93 -288 -240 -288zM319 899h32l149 -142h-44l-121 116l-121 -116h-44z" />
    <glyph glyph-name="Udieresis" unicode="&#xdc;" horiz-adv-x="670" 
d="M335 -6c-147 0 -240 85 -240 288v408h30v-408c0 -168 74 -258 210 -258s210 90 210 258v408h30v-408c0 -203 -93 -288 -240 -288zM462 825h-44v44h44v-44zM252 825h-44v44h44v-44z" />
    <glyph glyph-name="Yacute" unicode="&#xdd;" horiz-adv-x="516" 
d="M10 690h35l213 -348l213 348h35l-233 -381v-309h-30v309zM242 767l65 129h35l-70 -129h-30z" />
    <glyph glyph-name="Thorn" unicode="&#xde;" horiz-adv-x="566" 
d="M259 153h-134v-153h-30v690h30v-130h134c159 0 251 -76 251 -204c0 -127 -92 -203 -251 -203zM125 183h134c146 0 221 65 221 173s-75 174 -221 174h-134v-347z" />
    <glyph glyph-name="germandbls" unicode="&#xdf;" horiz-adv-x="527" 
d="M452 563c0 -43 -17 -77 -61 -96c50 -18 61 -56 61 -115v-212c0 -120 -56 -140 -154 -140h-25v30h40c76 0 109 26 109 110v212c0 71 -22 97 -109 97h-40v30h40c65 0 109 26 109 84c0 55 -38 103 -149 103c-107 0 -168 -42 -168 -175v-491h-30v499c0 128 63 197 198 197
c134 0 179 -66 179 -133z" />
    <glyph glyph-name="agrave" unicode="&#xe0;" horiz-adv-x="481" 
d="M50 141c0 83 57 138 153 138h173v68c0 100 -35 129 -140 129c-60 0 -106 -2 -142 -63l-24 17c34 59 84 76 166 76c117 0 170 -35 170 -159v-347h-30v74c-28 -60 -94 -80 -157 -80c-106 0 -169 51 -169 147zM376 179v70h-173c-93 0 -123 -53 -123 -108
c0 -85 58 -117 139 -117c88 0 157 43 157 155zM197 725l80 -158h-30l-85 158h35z" />
    <glyph glyph-name="aacute" unicode="&#xe1;" horiz-adv-x="481" 
d="M50 141c0 83 57 138 153 138h173v68c0 100 -35 129 -140 129c-60 0 -106 -2 -142 -63l-24 17c34 59 84 76 166 76c117 0 170 -35 170 -159v-347h-30v74c-28 -60 -94 -80 -157 -80c-106 0 -169 51 -169 147zM376 179v70h-173c-93 0 -123 -53 -123 -108
c0 -85 58 -117 139 -117c88 0 157 43 157 155zM226 567l80 158h35l-85 -158h-30z" />
    <glyph glyph-name="acircumflex" unicode="&#xe2;" horiz-adv-x="481" 
d="M50 141c0 83 57 138 153 138h173v68c0 100 -35 129 -140 129c-60 0 -106 -2 -142 -63l-24 17c34 59 84 76 166 76c117 0 170 -35 170 -159v-347h-30v74c-28 -60 -94 -80 -157 -80c-106 0 -169 51 -169 147zM376 179v70h-173c-93 0 -123 -53 -123 -108
c0 -85 58 -117 139 -117c88 0 157 43 157 155zM227 700h32l108 -142h-38l-86 113l-86 -113h-38z" />
    <glyph glyph-name="atilde" unicode="&#xe3;" horiz-adv-x="481" 
d="M50 141c0 83 57 138 153 138h173v68c0 100 -35 129 -140 129c-60 0 -106 -2 -142 -63l-24 17c34 59 84 76 166 76c117 0 170 -35 170 -159v-347h-30v74c-28 -60 -94 -80 -157 -80c-106 0 -169 51 -169 147zM376 179v70h-173c-93 0 -123 -53 -123 -108
c0 -85 58 -117 139 -117c88 0 157 43 157 155zM300 608c-48 0 -75 33 -116 33c-21 0 -46 -8 -71 -33l-23 19c25 26 55 44 94 44c46 0 72 -33 115 -33c19 0 49 9 70 33l23 -19c-19 -22 -54 -44 -92 -44z" />
    <glyph glyph-name="adieresis" unicode="&#xe4;" horiz-adv-x="481" 
d="M50 141c0 83 57 138 153 138h173v68c0 100 -35 129 -140 129c-60 0 -106 -2 -142 -63l-24 17c34 59 84 76 166 76c117 0 170 -35 170 -159v-347h-30v74c-28 -60 -94 -80 -157 -80c-106 0 -169 51 -169 147zM376 179v70h-173c-93 0 -123 -53 -123 -108
c0 -85 58 -117 139 -117c88 0 157 43 157 155zM365 646h-44v44h44v-44zM155 646h-44v44h44v-44z" />
    <glyph glyph-name="aring" unicode="&#xe5;" horiz-adv-x="481" 
d="M50 141c0 83 57 138 153 138h173v68c0 100 -35 129 -140 129c-60 0 -106 -2 -142 -63l-24 17c34 59 84 76 166 76c117 0 170 -35 170 -159v-347h-30v74c-28 -60 -94 -80 -157 -80c-106 0 -169 51 -169 147zM376 179v70h-173c-93 0 -123 -53 -123 -108
c0 -85 58 -117 139 -117c88 0 157 43 157 155zM139 646c0 61 49 110 109 110c61 0 110 -49 110 -110c0 -60 -49 -109 -110 -109c-60 0 -109 49 -109 109zM169 646c0 -43 36 -79 79 -79c45 0 80 36 80 79c0 45 -35 80 -80 80c-43 0 -79 -35 -79 -80z" />
    <glyph glyph-name="ae" unicode="&#xe6;" horiz-adv-x="777" 
d="M50 141c0 83 57 138 153 138h173v68c0 100 -35 129 -140 129c-60 0 -106 -2 -142 -63l-24 17c34 59 84 76 166 76c95 0 148 -25 162 -105c29 70 89 105 160 105c118 0 174 -82 174 -224v-40h-326v-32c0 -111 46 -186 156 -186c55 0 107 18 142 66l25 -17
c-34 -49 -91 -79 -167 -79c-82 0 -144 33 -170 111c-19 -63 -73 -111 -173 -111c-106 0 -169 51 -169 147zM376 179v70h-173c-93 0 -123 -53 -123 -108c0 -85 58 -117 139 -117c88 0 157 43 157 155zM406 292v-20h296v10c0 123 -44 194 -144 194c-87 0 -152 -61 -152 -184z
" />
    <glyph glyph-name="ccedilla" unicode="&#xe7;" horiz-adv-x="444" 
d="M219 -42l9 37c-113 10 -178 82 -178 215v82c0 142 77 214 206 214c71 0 128 -25 165 -75l-25 -17c-33 44 -86 62 -140 62c-111 0 -176 -61 -176 -184v-82c0 -111 52 -186 176 -186c55 0 107 18 142 66l25 -17c-34 -49 -91 -79 -167 -79l-4 -15c49 -9 81 -35 81 -77
c0 -55 -44 -82 -107 -82c-14 0 -28 1 -37 3l6 29c9 -1 20 -2 31 -2c43 0 77 12 77 52c0 33 -32 53 -84 56z" />
    <glyph glyph-name="egrave" unicode="&#xe8;" horiz-adv-x="481" 
d="M426 242h-346v-32c0 -111 52 -186 176 -186c57 0 107 18 142 66l25 -17c-34 -49 -91 -79 -167 -79c-131 0 -206 78 -206 216v82c0 142 70 214 188 214s188 -72 188 -214v-50zM80 292v-20h316v20c0 124 -57 184 -158 184c-100 0 -158 -61 -158 -184zM200 725l80 -158h-30
l-85 158h35z" />
    <glyph glyph-name="eacute" unicode="&#xe9;" horiz-adv-x="481" 
d="M426 242h-346v-32c0 -111 52 -186 176 -186c57 0 107 18 142 66l25 -17c-34 -49 -91 -79 -167 -79c-131 0 -206 78 -206 216v82c0 142 70 214 188 214s188 -72 188 -214v-50zM80 292v-20h316v20c0 124 -57 184 -158 184c-100 0 -158 -61 -158 -184zM205 567l80 158h35
l-85 -158h-30z" />
    <glyph glyph-name="ecircumflex" unicode="&#xea;" horiz-adv-x="481" 
d="M426 242h-346v-32c0 -111 52 -186 176 -186c57 0 107 18 142 66l25 -17c-34 -49 -91 -79 -167 -79c-131 0 -206 78 -206 216v82c0 142 70 214 188 214s188 -72 188 -214v-50zM80 292v-20h316v20c0 124 -57 184 -158 184c-100 0 -158 -61 -158 -184zM222 700h32l108 -142
h-38l-86 113l-86 -113h-38z" />
    <glyph glyph-name="edieresis" unicode="&#xeb;" horiz-adv-x="481" 
d="M426 242h-346v-32c0 -111 52 -186 176 -186c57 0 107 18 142 66l25 -17c-34 -49 -91 -79 -167 -79c-131 0 -206 78 -206 216v82c0 142 70 214 188 214s188 -72 188 -214v-50zM80 292v-20h316v20c0 124 -57 184 -158 184c-100 0 -158 -61 -158 -184zM365 646h-44v44h44
v-44zM155 646h-44v44h44v-44z" />
    <glyph glyph-name="igrave" unicode="&#xec;" horiz-adv-x="210" 
d="M40 725l80 -158h-30l-85 158h35zM90 0v500h30v-500h-30z" />
    <glyph glyph-name="iacute" unicode="&#xed;" horiz-adv-x="210" 
d="M90 567l80 158h35l-85 -158h-30zM90 0v500h30v-500h-30z" />
    <glyph glyph-name="icircumflex" unicode="&#xee;" horiz-adv-x="210" 
d="M90 0v500h30v-500h-30zM89 700h32l108 -142h-38l-86 113l-86 -113h-38z" />
    <glyph glyph-name="idieresis" unicode="&#xef;" horiz-adv-x="210" 
d="M192 646h-44v44h44v-44zM62 646h-44v44h44v-44zM90 0v500h30v-500h-30z" />
    <glyph glyph-name="eth" unicode="&#xf0;" horiz-adv-x="496" 
d="M169 679l14 27c28 -12 54 -23 77 -34l35 59l26 -16l-33 -56c121 -58 158 -104 158 -259v-192c0 -142 -73 -214 -198 -214s-198 72 -198 214v84c0 142 73 214 198 214c87 0 139 -33 168 -87v6c-1 106 -34 156 -143 209l-36 -60l-27 15l35 58c-23 10 -48 21 -76 32zM248 24
c109 0 168 60 168 184v84c0 124 -59 184 -168 184s-168 -60 -168 -184v-84c0 -124 59 -184 168 -184z" />
    <glyph glyph-name="ntilde" unicode="&#xf1;" horiz-adv-x="526" 
d="M75 0v500h30v-84c28 57 85 90 161 90c115 0 185 -81 185 -224v-282h-30v282c0 126 -59 194 -155 194c-114 0 -159 -71 -161 -185v-291h-30zM322 608c-48 0 -75 33 -116 33c-21 0 -46 -8 -71 -33l-23 19c25 26 55 44 94 44c46 0 72 -33 115 -33c19 0 49 9 70 33l23 -19
c-19 -22 -54 -44 -92 -44z" />
    <glyph glyph-name="ograve" unicode="&#xf2;" horiz-adv-x="496" 
d="M446 208c0 -142 -73 -214 -198 -214s-198 72 -198 214v84c0 142 73 214 198 214s198 -72 198 -214v-84zM416 208v84c0 124 -59 184 -168 184s-168 -60 -168 -184v-84c0 -124 59 -184 168 -184s168 60 168 184zM210 725l80 -158h-30l-85 158h35z" />
    <glyph glyph-name="oacute" unicode="&#xf3;" horiz-adv-x="496" 
d="M446 208c0 -142 -73 -214 -198 -214s-198 72 -198 214v84c0 142 73 214 198 214s198 -72 198 -214v-84zM416 208v84c0 124 -59 184 -168 184s-168 -60 -168 -184v-84c0 -124 59 -184 168 -184s168 60 168 184zM215 567l80 158h35l-85 -158h-30z" />
    <glyph glyph-name="ocircumflex" unicode="&#xf4;" horiz-adv-x="496" 
d="M446 208c0 -142 -73 -214 -198 -214s-198 72 -198 214v84c0 142 73 214 198 214s198 -72 198 -214v-84zM416 208v84c0 124 -59 184 -168 184s-168 -60 -168 -184v-84c0 -124 59 -184 168 -184s168 60 168 184zM232 700h32l108 -142h-38l-86 113l-86 -113h-38z" />
    <glyph glyph-name="otilde" unicode="&#xf5;" horiz-adv-x="496" 
d="M446 208c0 -142 -73 -214 -198 -214s-198 72 -198 214v84c0 142 73 214 198 214s198 -72 198 -214v-84zM416 208v84c0 124 -59 184 -168 184s-168 -60 -168 -184v-84c0 -124 59 -184 168 -184s168 60 168 184zM307 608c-48 0 -75 33 -116 33c-21 0 -46 -8 -71 -33l-23 19
c25 26 55 44 94 44c46 0 72 -33 115 -33c19 0 49 9 70 33l23 -19c-19 -22 -54 -44 -92 -44z" />
    <glyph glyph-name="odieresis" unicode="&#xf6;" horiz-adv-x="496" 
d="M446 208c0 -142 -73 -214 -198 -214s-198 72 -198 214v84c0 142 73 214 198 214s198 -72 198 -214v-84zM416 208v84c0 124 -59 184 -168 184s-168 -60 -168 -184v-84c0 -124 59 -184 168 -184s168 60 168 184zM375 646h-44v44h44v-44zM165 646h-44v44h44v-44z" />
    <glyph glyph-name="divide" unicode="&#xf7;" 
d="M56 339h369v30h-369v-30zM259 494h-40v40h40v-40zM259 175h-40v40h40v-40z" />
    <glyph glyph-name="oslash" unicode="&#xf8;" horiz-adv-x="496" 
d="M117 -79h-33l46 103c-52 34 -80 95 -80 184v84c0 142 73 214 198 214c34 0 64 -6 90 -17l42 93h33l-48 -107c52 -33 81 -94 81 -183v-84c0 -142 -73 -214 -198 -214c-35 0 -65 6 -91 16zM416 208v84c0 74 -22 126 -64 155l-183 -409c23 -10 49 -14 79 -14
c108 0 168 61 168 184zM80 208c0 -75 22 -126 63 -155l183 409c-22 9 -49 14 -78 14c-108 0 -168 -61 -168 -184v-84z" />
    <glyph glyph-name="ugrave" unicode="&#xf9;" horiz-adv-x="526" 
d="M451 500v-500h-30v84c-28 -57 -85 -90 -161 -90c-115 0 -185 81 -185 224v282h30v-282c0 -126 59 -194 155 -194c114 0 161 73 161 187v289h30zM225 725l80 -158h-30l-85 158h35z" />
    <glyph glyph-name="uacute" unicode="&#xfa;" horiz-adv-x="526" 
d="M451 500v-500h-30v84c-28 -57 -85 -90 -161 -90c-115 0 -185 81 -185 224v282h30v-282c0 -126 59 -194 155 -194c114 0 161 73 161 187v289h30zM231 567l80 158h35l-85 -158h-30z" />
    <glyph glyph-name="ucircumflex" unicode="&#xfb;" horiz-adv-x="526" 
d="M451 500v-500h-30v84c-28 -57 -85 -90 -161 -90c-115 0 -185 81 -185 224v282h30v-282c0 -126 59 -194 155 -194c114 0 161 73 161 187v289h30zM247 700h32l108 -142h-38l-86 113l-86 -113h-38z" />
    <glyph glyph-name="udieresis" unicode="&#xfc;" horiz-adv-x="526" 
d="M451 500v-500h-30v84c-28 -57 -85 -90 -161 -90c-115 0 -185 81 -185 224v282h30v-282c0 -126 59 -194 155 -194c114 0 161 73 161 187v289h30zM390 646h-44v44h44v-44zM180 646h-44v44h44v-44z" />
    <glyph glyph-name="yacute" unicode="&#xfd;" horiz-adv-x="452" 
d="M74 -190v30c90 0 110 41 147 144l2 7l-213 509h33l150 -360l46 -105l167 465h31l-187 -523c-40 -120 -78 -167 -176 -167zM214 567l80 158h35l-85 -158h-30z" />
    <glyph glyph-name="thorn" unicode="&#xfe;" horiz-adv-x="521" 
d="M461 292v-82c0 -145 -71 -216 -190 -216c-88 0 -140 27 -166 85v-269h-30v880h30v-269c25 55 75 85 166 85c118 0 190 -71 190 -214zM271 24c102 0 160 61 160 186v82c0 126 -61 184 -160 184c-117 0 -164 -62 -166 -175v-99c1 -102 36 -178 166 -178z" />
    <glyph glyph-name="ydieresis" unicode="&#xff;" horiz-adv-x="452" 
d="M74 -190v30c90 0 110 41 147 144l2 7l-213 509h33l150 -360l46 -105l167 465h31l-187 -523c-40 -120 -78 -167 -176 -167zM347 646h-44v44h44v-44zM137 646h-44v44h44v-44z" />
    <glyph glyph-name="OE" unicode="&#x152;" horiz-adv-x="961" 
d="M906 690v-30h-366v-254v-15v-19h336v-30h-336v-43v-16v-253h366v-30h-396v126c-39 -91 -114 -132 -210 -132c-143 0 -240 92 -240 305v92c0 212 97 305 240 305c96 0 171 -42 210 -133v127h396zM90 391v-92c0 -202 90 -275 210 -275c117 0 205 69 210 260v122
c-5 190 -93 260 -210 260c-120 0 -210 -73 -210 -275z" />
    <glyph glyph-name="oe" unicode="&#x153;" horiz-adv-x="847" 
d="M248 506c91 0 155 -39 182 -116c26 77 87 116 174 116c118 0 188 -72 188 -214v-50h-346v-32c0 -115 55 -186 176 -186c57 0 107 18 142 66l25 -17c-34 -49 -91 -79 -167 -79c-96 0 -162 42 -191 119c-27 -79 -91 -119 -183 -119c-125 0 -198 72 -198 214v84
c0 142 73 214 198 214zM416 210v82c0 127 -62 184 -168 184c-109 0 -168 -60 -168 -184v-84c0 -124 59 -184 168 -184s168 62 168 186zM446 292v-20h316v20c0 124 -57 184 -158 184c-98 0 -158 -58 -158 -184z" />
    <glyph glyph-name="Ydieresis" unicode="&#x178;" horiz-adv-x="516" 
d="M10 690h35l213 -348l213 348h35l-233 -381v-309h-30v309zM385 825h-44v44h44v-44zM175 825h-44v44h44v-44z" />
    <glyph glyph-name="afii57929" unicode="&#x2bc;" horiz-adv-x="100" 
d="M70 500v-160l-30 -26v186h30z" />
    <glyph glyph-name="tilde" unicode="&#x2dc;" horiz-adv-x="412" 
d="M265 608c-48 0 -75 33 -116 33c-21 0 -46 -8 -71 -33l-23 19c25 26 55 44 94 44c46 0 72 -33 115 -33c19 0 49 9 70 33l23 -19c-19 -22 -54 -44 -92 -44z" />
    <glyph glyph-name="endash" unicode="&#x2013;" horiz-adv-x="509" 
d="M70 274v30h369v-30h-369z" />
    <glyph glyph-name="emdash" unicode="&#x2014;" horiz-adv-x="729" 
d="M30 274v30h669v-30h-669z" />
    <glyph glyph-name="quoteleft" unicode="&#x2018;" horiz-adv-x="180" 
d="M70 592v108l40 35v-143h-40z" />
    <glyph glyph-name="quoteright" unicode="&#x2019;" horiz-adv-x="180" 
d="M110 690v-108l-40 -35v143h40z" />
    <glyph glyph-name="quotedblleft" unicode="&#x201c;" horiz-adv-x="296" 
d="M70 592v108l40 35v-143h-40zM186 592v108l40 35v-143h-40z" />
    <glyph glyph-name="quotedblright" unicode="&#x201d;" horiz-adv-x="296" 
d="M226 690v-108l-40 -35v143h40zM110 690v-108l-40 -35v143h40z" />
    <glyph glyph-name="quotedblbase" unicode="&#x201e;" horiz-adv-x="296" 
d="M110 40v-108l-40 -35v143h40zM226 40v-108l-40 -35v143h40z" />
    <glyph glyph-name="bullet" unicode="&#x2022;" horiz-adv-x="298" 
d="M65 341c0 46 38 84 84 84s84 -38 84 -84s-38 -84 -84 -84s-84 38 -84 84z" />
    <glyph glyph-name="ellipsis" unicode="&#x2026;" horiz-adv-x="538" 
d="M116 46v-46h-46v46h46zM468 46v-46h-46v46h46zM292 46v-46h-46v46h46z" />
    <glyph glyph-name="perthousand" horiz-adv-x="1059" 
d="M527 690h34l-385 -690h-35zM161 372c76 0 104 52 104 117v63c0 77 -39 115 -104 115s-104 -38 -104 -115v-63c0 -65 28 -117 104 -117zM161 342c-86 0 -134 50 -134 147v63c0 97 50 145 134 145s134 -48 134 -145v-63c0 -97 -48 -147 -134 -147zM553 24
c76 0 104 52 104 117v63c0 77 -39 115 -104 115s-104 -38 -104 -115v-63c0 -65 28 -117 104 -117zM553 -6c-86 0 -134 50 -134 147v63c0 97 50 145 134 145s134 -48 134 -145v-63c0 -97 -48 -147 -134 -147zM873 24c76 0 104 52 104 117v63c0 77 -39 115 -104 115
s-104 -38 -104 -115v-63c0 -65 28 -117 104 -117zM873 -6c-86 0 -134 50 -134 147v63c0 97 50 145 134 145s134 -48 134 -145v-63c0 -97 -48 -147 -134 -147z" />
    <glyph glyph-name="guilsinglleft" unicode="&#x2039;" horiz-adv-x="322" 
d="M30 283l232 231v-42l-190 -189l190 -189v-42z" />
    <glyph glyph-name="guilsinglright" unicode="&#x203a;" horiz-adv-x="322" 
d="M60 514l232 -231l-232 -231v42l190 189l-190 189v42z" />
    <glyph glyph-name="uni2074" horiz-adv-x="296" 
d="M161 690h33l-129 -215h126v66h30v-66h39v-30h-39v-71h-30v71h-161v33z" />
    <glyph glyph-name="Euro" unicode="&#x20ac;" 
d="M16 285h70v120h-70v30h71c7 188 64 261 189 261c93 0 167 -54 185 -207h-31c-15 121 -64 177 -154 177c-107 0 -153 -59 -159 -231h190v-30h-191v-120h191v-30h-190c6 -171 51 -231 159 -231c91 0 140 78 151 181h30c-15 -148 -95 -211 -181 -211
c-126 0 -182 73 -189 261h-71v30z" />
    <glyph glyph-name="afii61352" horiz-adv-x="952" 
d="M907 478c0 -103 -52 -152 -140 -152s-140 49 -140 152v66c0 103 52 152 140 152s140 -49 140 -152v-66zM877 478v66c0 82 -37 122 -110 122s-110 -40 -110 -122v-66c0 -82 37 -122 110 -122s110 40 110 122zM648 234v30h239v-30h-239zM513 690h30v-690h-28l-390 626v-626
h-30v690h28l390 -631v631z" />
    <glyph glyph-name="trademark" unicode="&#x2122;" horiz-adv-x="872" 
d="M446 690l181 -304l181 304h24v-417h-30v348l-160 -268h-30l-160 268v-348h-30v417h24zM40 690h317v-30h-144v-387h-30v387h-143v30z" />
    <glyph glyph-name="dollar.fitted" horiz-adv-x="568" 
d="M501 583l-25 -17c-33 54 -84 94 -175 99v-306c124 -32 212 -67 212 -197c0 -84 -62 -164 -212 -168v-110h-30v111c-97 4 -169 42 -216 112l24 17c37 -51 89 -95 192 -100v312c-118 29 -201 69 -201 190c0 91 59 166 201 170v116h30v-117c94 -4 155 -41 200 -112zM483 162
c0 99 -59 137 -182 166v-304c126 3 182 65 182 138zM100 526c0 -107 81 -135 171 -159v299c-103 -3 -171 -47 -171 -140z" />
    <glyph glyph-name="Euro.fitted" horiz-adv-x="627" 
d="M10 285h94v120h-94v30h95c11 190 102 261 239 261c111 0 217 -56 238 -207h-30c-22 127 -104 177 -208 177c-120 0 -198 -60 -209 -231h226v-30h-227v-120h227v-30h-226c11 -172 90 -231 209 -231c110 0 187 63 208 181h29c-21 -155 -131 -211 -237 -211
c-137 0 -228 71 -239 261h-95v30z" />
    <glyph glyph-name="cent.fitted" horiz-adv-x="443" 
d="M270 -116h-30v111c-121 5 -190 78 -190 215v82c0 136 70 207 190 213v117h30v-116c64 -3 116 -29 151 -75l-25 -17c-33 44 -86 62 -140 62c-111 0 -176 -61 -176 -184v-82c0 -111 52 -186 176 -186c55 0 107 18 142 66l25 -17c-32 -46 -84 -75 -153 -79v-110z" />
    <glyph glyph-name="sterling.fitted" horiz-adv-x="462" 
d="M50 0v30h71v336h-71v30h71v78c0 110 29 222 161 222c67 0 108 -28 145 -66l-24 -20c-37 42 -79 56 -121 56c-100 0 -131 -74 -131 -192v-78h156v-30h-156v-336h270v-30h-371z" />
    <glyph glyph-name="yen.fitted" horiz-adv-x="516" 
d="M55 200h188v109h-188v30h169l-214 351h35l213 -348l213 348h35l-215 -351h170v-30h-188v-109h188v-30h-188v-170h-30v170h-188v30z" />
    <glyph glyph-name="uniF639" horiz-adv-x="516" 
d="M446 193c0 -127 -84 -199 -188 -199s-188 72 -188 200v302c0 128 84 200 188 200s188 -72 188 -199v-304zM100 497v-304c0 -106 67 -169 158 -169s158 63 158 169v304c0 106 -67 169 -158 169s-158 -63 -158 -169z" />
    <glyph glyph-name="uniF63A" horiz-adv-x="497" 
d="M430 30v-30h-385v24l253 299c74 88 104 136 104 188c0 103 -78 155 -158 155c-86 0 -155 -53 -158 -155h-30c0 114 85 185 188 185c104 0 188 -71 188 -189c0 -76 -67 -148 -129 -222l-214 -255h341z" />
    <glyph glyph-name="uniF63B" horiz-adv-x="489" 
d="M190 341v30h33c123 0 176 56 176 146c0 83 -62 149 -158 149c-91 0 -154 -61 -157 -146h-30c0 109 89 176 187 176c109 0 188 -76 188 -179c0 -97 -57 -144 -119 -161c73 -20 129 -84 129 -172c0 -109 -75 -190 -191 -190c-126 0 -196 77 -203 181h30
c10 -91 63 -151 173 -151c91 0 161 62 161 158c0 97 -63 159 -186 159h-33z" />
    <glyph glyph-name="uniF63C" horiz-adv-x="494" 
d="M280 690h33l-247 -524h282v227h30v-227h76v-30h-76v-136h-30v136h-318v24z" />
    <glyph glyph-name="uniF63D" 
d="M243 438c-71 0 -114 -50 -141 -107h-26v359h330v-30h-300v-267c28 43 77 75 139 75c136 0 190 -97 190 -252c0 -136 -67 -222 -192 -222c-101 0 -176 75 -183 170h30c8 -83 75 -140 153 -140c99 0 162 53 162 192c0 144 -48 222 -162 222z" />
    <glyph glyph-name="uniF63E" horiz-adv-x="478" 
d="M241 402c110 0 187 -83 187 -202c0 -122 -77 -206 -189 -206c-110 0 -189 84 -189 204c0 60 25 109 46 158l143 334h34l-142 -322c29 21 68 34 110 34zM80 200c0 -107 63 -176 159 -176c94 0 159 69 159 176c0 104 -65 172 -159 172c-96 0 -159 -68 -159 -172z" />
    <glyph glyph-name="uniF63F" horiz-adv-x="428" 
d="M65 521h-30v169h368v-30l-236 -660h-33l237 660h-306v-139z" />
    <glyph glyph-name="uniF640" horiz-adv-x="477" 
d="M80 182c0 -88 70 -158 158 -158s159 70 159 158s-71 159 -159 159s-158 -71 -158 -159zM91 518c0 -82 65 -147 147 -147s148 65 148 147s-66 148 -148 148s-147 -66 -147 -148zM50 182c0 78 47 146 115 174c-61 28 -104 90 -104 162c0 98 79 178 177 178
s178 -80 178 -178c0 -72 -44 -134 -106 -162c69 -28 117 -96 117 -174c0 -104 -85 -188 -189 -188s-188 84 -188 188z" />
    <glyph glyph-name="uniF641" horiz-adv-x="478" 
d="M239 288c-112 0 -189 83 -189 202c0 122 77 206 189 206c110 0 189 -84 189 -203c0 -61 -24 -110 -45 -159l-144 -334h-34l142 322c-31 -23 -59 -34 -108 -34zM398 490c0 107 -63 176 -159 176c-94 0 -159 -69 -159 -176c0 -104 65 -172 159 -172c96 0 159 68 159 172z
" />
    <glyph glyph-name="uniF6BA" horiz-adv-x="299" 
d="M30 330v30h239v-30h-239z" />
    <glyph glyph-name="uniF6BB" horiz-adv-x="509" 
d="M70 330v30h369v-30h-369z" />
    <glyph glyph-name="uniF6BC" horiz-adv-x="729" 
d="M30 330v30h669v-30h-669z" />
    <glyph glyph-name="uniF6DC" horiz-adv-x="269" 
d="M174 690v-690h-30v649l-99 -71v36l99 76h30z" />
    <glyph glyph-name="e.ss01" horiz-adv-x="481" 
d="M238 237h-158v-23c0 -111 52 -190 176 -190c57 0 107 18 142 66l25 -17c-34 -49 -91 -79 -167 -79c-131 0 -206 78 -206 216v82c0 142 77 214 201 214c107 0 175 -53 175 -135c0 -84 -70 -134 -188 -134zM80 292v-25h158c101 0 158 37 158 104c0 65 -55 105 -145 105
c-108 0 -171 -61 -171 -184z" />
    <glyph glyph-name="a.ss01" horiz-adv-x="511" 
d="M50 210v82c0 142 66 214 190 214c84 0 138 -24 166 -81v75h30v-500h-30v75c-28 -57 -82 -81 -166 -81c-124 0 -190 72 -190 216zM240 24c133 0 166 75 166 185v82c0 110 -37 185 -166 185c-108 0 -160 -61 -160 -184v-82c0 -125 52 -186 160 -186z" />
    <glyph glyph-name="eacute.ss01" horiz-adv-x="481" 
d="M238 237h-158v-23c0 -111 52 -190 176 -190c57 0 107 18 142 66l25 -17c-34 -49 -91 -79 -167 -79c-131 0 -206 78 -206 216v82c0 142 77 214 201 214c107 0 175 -53 175 -135c0 -84 -70 -134 -188 -134zM80 292v-25h158c101 0 158 37 158 104c0 65 -55 105 -145 105
c-108 0 -171 -61 -171 -184zM219 567l80 158h35l-85 -158h-30z" />
    <glyph glyph-name="ecircumflex.ss01" horiz-adv-x="481" 
d="M238 237h-158v-23c0 -111 52 -190 176 -190c57 0 107 18 142 66l25 -17c-34 -49 -91 -79 -167 -79c-131 0 -206 78 -206 216v82c0 142 77 214 201 214c107 0 175 -53 175 -135c0 -84 -70 -134 -188 -134zM80 292v-25h158c101 0 158 37 158 104c0 65 -55 105 -145 105
c-108 0 -171 -61 -171 -184zM232 700h32l108 -142h-38l-86 113l-86 -113h-38z" />
    <glyph glyph-name="edieresis.ss01" horiz-adv-x="481" 
d="M238 237h-158v-23c0 -111 52 -190 176 -190c57 0 107 18 142 66l25 -17c-34 -49 -91 -79 -167 -79c-131 0 -206 78 -206 216v82c0 142 77 214 201 214c107 0 175 -53 175 -135c0 -84 -70 -134 -188 -134zM80 292v-25h158c101 0 158 37 158 104c0 65 -55 105 -145 105
c-108 0 -171 -61 -171 -184zM375 646h-44v44h44v-44zM165 646h-44v44h44v-44z" />
    <glyph glyph-name="aacute.ss01" horiz-adv-x="511" 
d="M50 210v82c0 142 66 214 190 214c84 0 138 -24 166 -81v75h30v-500h-30v75c-28 -57 -82 -81 -166 -81c-124 0 -190 72 -190 216zM240 24c133 0 166 75 166 185v82c0 110 -37 185 -166 185c-108 0 -160 -61 -160 -184v-82c0 -125 52 -186 160 -186zM239 567l80 158h35
l-85 -158h-30z" />
    <glyph glyph-name="agrave.ss01" horiz-adv-x="511" 
d="M50 210v82c0 142 66 214 190 214c84 0 138 -24 166 -81v75h30v-500h-30v75c-28 -57 -82 -81 -166 -81c-124 0 -190 72 -190 216zM240 24c133 0 166 75 166 185v82c0 110 -37 185 -166 185c-108 0 -160 -61 -160 -184v-82c0 -125 52 -186 160 -186zM205 725l80 -158h-30
l-85 158h35z" />
    <glyph glyph-name="egrave.ss01" horiz-adv-x="481" 
d="M238 237h-158v-23c0 -111 52 -190 176 -190c57 0 107 18 142 66l25 -17c-34 -49 -91 -79 -167 -79c-131 0 -206 78 -206 216v82c0 142 77 214 201 214c107 0 175 -53 175 -135c0 -84 -70 -134 -188 -134zM80 292v-25h158c101 0 158 37 158 104c0 65 -55 105 -145 105
c-108 0 -171 -61 -171 -184zM195 725l80 -158h-30l-85 158h35z" />
    <glyph glyph-name="aring.ss01" horiz-adv-x="511" 
d="M50 210v82c0 142 66 214 190 214c84 0 138 -24 166 -81v75h30v-500h-30v75c-28 -57 -82 -81 -166 -81c-124 0 -190 72 -190 216zM240 24c133 0 166 75 166 185v82c0 110 -37 185 -166 185c-108 0 -160 -61 -160 -184v-82c0 -125 52 -186 160 -186zM149 646
c0 61 49 110 109 110c61 0 110 -49 110 -110c0 -60 -49 -109 -110 -109c-60 0 -109 49 -109 109zM179 646c0 -43 36 -79 79 -79c45 0 80 36 80 79c0 45 -35 80 -80 80c-43 0 -79 -35 -79 -80z" />
    <glyph glyph-name="adieresis.ss01" horiz-adv-x="511" 
d="M50 210v82c0 142 66 214 190 214c84 0 138 -24 166 -81v75h30v-500h-30v75c-28 -57 -82 -81 -166 -81c-124 0 -190 72 -190 216zM240 24c133 0 166 75 166 185v82c0 110 -37 185 -166 185c-108 0 -160 -61 -160 -184v-82c0 -125 52 -186 160 -186zM379 646h-44v44h44v-44
zM169 646h-44v44h44v-44z" />
    <glyph glyph-name="atilde.ss01" horiz-adv-x="511" 
d="M50 210v82c0 142 66 214 190 214c84 0 138 -24 166 -81v75h30v-500h-30v75c-28 -57 -82 -81 -166 -81c-124 0 -190 72 -190 216zM240 24c133 0 166 75 166 185v82c0 110 -37 185 -166 185c-108 0 -160 -61 -160 -184v-82c0 -125 52 -186 160 -186zM315 608
c-48 0 -75 33 -116 33c-21 0 -46 -8 -71 -33l-23 19c25 26 55 44 94 44c46 0 72 -33 115 -33c19 0 49 9 70 33l23 -19c-19 -22 -54 -44 -92 -44z" />
    <glyph glyph-name="acircumflex.ss01" horiz-adv-x="511" 
d="M50 210v82c0 142 66 214 190 214c84 0 138 -24 166 -81v75h30v-500h-30v75c-28 -57 -82 -81 -166 -81c-124 0 -190 72 -190 216zM240 24c133 0 166 75 166 185v82c0 110 -37 185 -166 185c-108 0 -160 -61 -160 -184v-82c0 -125 52 -186 160 -186zM232 700h32l108 -142
h-38l-86 113l-86 -113h-38z" />
    <glyph glyph-name="afii10084.ss01" horiz-adv-x="792" 
d="M75 0v500h30v-84c21 57 73 90 141 90c72 0 124 -40 150 -117c23 75 78 117 156 117c103 0 165 -81 165 -224v-282h-30v282c0 126 -51 194 -135 194c-98 0 -137 -68 -141 -177v-299h-30v282c0 126 -51 194 -135 194c-100 0 -139 -71 -141 -185v-291h-30z" />
    </font>
</defs>
</svg>
