<?xml version="1.0" standalone="no"?>
<!DOCTYPE svg PUBLIC "-//W3C//DTD SVG 1.1//EN" "http://www.w3.org/Graphics/SVG/1.1/DTD/svg11.dtd" >
<svg xmlns="http://www.w3.org/2000/svg" xmlns:xlink="http://www.w3.org/1999/xlink" version="1.1">
<metadata>
Created by FontForge 20170812 at Thu Dec 17 00:49:55 2020
 By www-data
DIN 2014 is a contemporary version of a well-known DIN typeface. The Regular performs well in long text settings, while Light and Bold faces are extremely legible at large sizes. Type family spans 18 faces: 6 Upright with the matching Italics of normal width and 6 Narrow ones. The typeface was designed by Vasily Biryukov and released by Paratype in 2015.
</metadata>
<defs>
<font id="DIN2014-ExtraBold" horiz-adv-x="560" >
  <font-face 
    font-family="DIN 2014 Extra Bold"
    font-weight="800"
    font-stretch="normal"
    units-per-em="1000"
    panose-1="2 11 8 4 2 2 2 2 2 4"
    ascent="750"
    descent="-250"
    x-height="500"
    cap-height="690"
    bbox="-41 -200 1102 881"
    underline-thickness="50"
    underline-position="-100"
    stemh="126"
    stemv="150"
    unicode-range="U+0020-E006"
  />
<missing-glyph horiz-adv-x="250" 
 />
    <glyph glyph-name="fi" unicode="fi" horiz-adv-x="508" 
d="M10 500h64v22c0 141 59 168 181 168h44v-130h-27c-37 0 -48 -17 -48 -57v-3h260v-500h-150v374h-110v-374h-150v374h-64v126z" />
    <glyph glyph-name="fl" unicode="fl" horiz-adv-x="573" 
d="M335 163v397h-63c-37 0 -48 -17 -48 -57v-3h75v-126h-75v-374h-150v374h-64v126h64v22c0 141 59 168 181 168h230v-494c0 -54 23 -68 63 -68v-128c-139 0 -213 28 -213 163z" />
    <glyph glyph-name=".notdef" horiz-adv-x="250" 
 />
    <glyph glyph-name="space" unicode=" " horiz-adv-x="250" 
 />
    <glyph glyph-name="exclam" unicode="!" horiz-adv-x="266" 
d="M206 690v-501h-146v501h146zM211 0v156h-156v-156h156z" />
    <glyph glyph-name="quotedbl" unicode="&#x22;" horiz-adv-x="382" 
d="M176 690v-189h-136v189h136zM342 690v-189h-136v189h136z" />
    <glyph glyph-name="numbersign" unicode="#" 
d="M37 504h92l35 186h147l-35 -186h70l35 186h148l-35 -186h66v-128h-90l-11 -62h64v-128h-88l-35 -186h-147l34 186h-70l-34 -186h-148l35 186h-70v128h94l11 62h-68v128zM252 376l-11 -62h70l11 62h-70z" />
    <glyph glyph-name="dollar" unicode="$" 
d="M533 583l-123 -88c-17 29 -37 48 -65 58v-144c139 -43 193 -97 193 -211c0 -108 -63 -185 -182 -203v-111h-136v111c-85 12 -148 48 -199 112l124 87c23 -30 51 -50 86 -60v150c-132 45 -189 107 -189 215c0 98 55 176 178 196v117h136v-118c77 -14 139 -52 177 -111z
M372 190c0 20 -7 35 -27 48v-96c19 12 27 29 27 48zM208 500c0 -19 7 -33 23 -46v93c-16 -11 -23 -28 -23 -47z" />
    <glyph glyph-name="percent" unicode="%" horiz-adv-x="776" 
d="M509 690h143l-385 -690h-144zM756 204v-67c0 -90 -43 -147 -155 -147c-101 0 -153 50 -153 147v67c0 97 54 145 153 145c102 0 155 -47 155 -145zM602 90c21 0 31 10 31 47v64c0 37 -10 47 -31 47c-20 0 -30 -10 -30 -47v-64c0 -37 10 -47 30 -47zM328 555v-67
c0 -90 -43 -147 -155 -147c-101 0 -153 50 -153 147v67c0 97 54 145 153 145c102 0 155 -47 155 -145zM174 441c21 0 31 10 31 47v64c0 37 -10 47 -31 47c-20 0 -30 -10 -30 -47v-64c0 -37 10 -47 30 -47z" />
    <glyph glyph-name="ampersand" unicode="&#x26;" horiz-adv-x="673" 
d="M30 182c0 89 52 150 113 198c-38 49 -63 99 -63 161c0 97 85 159 199 159c125 0 197 -64 197 -139c0 -76 -70 -135 -140 -189l106 -119c5 20 7 43 7 69h158c0 -73 -18 -140 -53 -195l114 -127h-183l-30 33c-48 -28 -108 -43 -177 -43c-158 0 -248 94 -248 192zM287 128
c27 0 51 4 71 12l-130 143c-22 -24 -36 -48 -36 -73c0 -49 38 -82 95 -82zM236 541c0 -24 11 -51 27 -77c39 29 67 56 67 89c0 24 -19 40 -48 40c-26 0 -46 -14 -46 -52z" />
    <glyph glyph-name="quotesingle" unicode="'" horiz-adv-x="216" 
d="M176 690v-189h-136v189h136z" />
    <glyph glyph-name="parenleft" unicode="(" horiz-adv-x="317" 
d="M317 0l-80 -116c-141 83 -177 157 -177 268v392c0 111 36 185 177 268l80 -116c-74 -56 -107 -73 -107 -181v-334c0 -108 33 -125 107 -181z" />
    <glyph glyph-name="parenright" unicode=")" horiz-adv-x="317" 
d="M100 -116l-80 116c74 56 107 73 107 181v334c0 108 -33 125 -107 181l80 116c141 -83 177 -157 177 -268v-392c0 -111 -36 -185 -177 -268z" />
    <glyph glyph-name="asterisk" unicode="*" horiz-adv-x="429" 
d="M260 690l-5 -91l75 51l54 -94l-79 -40l80 -41l-55 -93l-75 49l5 -90h-108l4 88l-73 -48l-55 93l82 41l-81 41l53 94l74 -49l-4 89h108z" />
    <glyph glyph-name="plus" unicode="+" 
d="M60 291v126h130v132h127v-132h132v-126h-132v-131h-127v131h-130z" />
    <glyph glyph-name="comma" unicode="," horiz-adv-x="276" 
d="M216 176v-215l-156 -133v348h156z" />
    <glyph glyph-name="hyphen" unicode="-" horiz-adv-x="319" 
d="M30 223v132h259v-132h-259z" />
    <glyph glyph-name="period" unicode="." horiz-adv-x="296" 
d="M236 176v-176h-176v176h176z" />
    <glyph glyph-name="slash" unicode="/" horiz-adv-x="485" 
d="M181 -116h-134l336 928h134z" />
    <glyph glyph-name="zero" unicode="0" 
d="M528 220c0 -168 -114 -230 -248 -230s-248 62 -248 230v250c0 178 114 230 248 230s248 -52 248 -229v-251zM197 451v-212c0 -74 20 -111 83 -111c62 0 82 37 82 111v212c0 74 -20 111 -82 111c-63 0 -83 -37 -83 -111z" />
    <glyph glyph-name="one" unicode="1" 
d="M391 690v-690h-166v521l-99 -61v154l119 76h146z" />
    <glyph glyph-name="two" unicode="2" 
d="M493 138v-138h-435v98l225 265c41 48 57 87 57 130c0 48 -34 71 -73 71c-41 0 -69 -25 -73 -71h-143c0 120 101 207 226 207c131 0 228 -93 228 -206c0 -95 -60 -168 -105 -220l-118 -136h211z" />
    <glyph glyph-name="three" unicode="3" 
d="M198 287v138h54c42 0 80 22 80 71c0 43 -31 68 -73 68c-41 0 -65 -25 -73 -61h-143c7 114 100 197 226 197c131 0 228 -93 228 -194c0 -81 -52 -126 -90 -148c56 -30 100 -83 100 -163c0 -114 -78 -205 -230 -205s-239 85 -244 201h143c6 -38 36 -63 88 -63s78 35 78 79
c0 51 -29 80 -90 80h-54z" />
    <glyph glyph-name="four" unicode="4" 
d="M237 690h185l-208 -460h99v163h166v-163h63v-138h-63v-92h-166v92h-309v113z" />
    <glyph glyph-name="five" unicode="5" 
d="M284 342c-31 0 -48 -18 -61 -51h-149v399h413v-146h-250v-88c18 14 46 32 98 32c95 0 177 -74 177 -244c0 -175 -75 -254 -223 -254c-120 0 -225 61 -238 195h164c9 -36 29 -57 69 -57c39 0 62 37 62 106c0 73 -19 108 -62 108z" />
    <glyph glyph-name="six" unicode="6" 
d="M417 690l-150 -274c23 9 41 12 68 12c104 0 193 -87 193 -208c0 -168 -114 -230 -247 -230c-135 0 -249 62 -249 230c0 57 20 124 71 216l138 254h176zM198 211c0 -48 25 -83 83 -83c57 0 81 35 81 83s-24 83 -81 83c-58 0 -83 -35 -83 -83z" />
    <glyph glyph-name="seven" unicode="7" 
d="M209 451h-138v239h438v-108l-189 -582h-171l190 552h-130v-101z" />
    <glyph glyph-name="eight" unicode="8" 
d="M32 191c0 78 47 141 101 167c-55 29 -91 88 -91 153c0 125 114 189 238 189s238 -64 238 -189c0 -65 -37 -124 -92 -153c56 -26 102 -89 102 -167c0 -132 -110 -201 -248 -201s-248 69 -248 201zM197 211c0 -47 35 -84 83 -84c46 0 83 37 83 84c0 51 -43 83 -83 83
c-41 0 -83 -32 -83 -83zM206 490c0 -41 33 -74 74 -74c40 0 73 33 73 74c0 40 -33 72 -73 72c-41 0 -74 -32 -74 -72z" />
    <glyph glyph-name="nine" unicode="9" 
d="M143 0l150 274c-23 -9 -41 -12 -68 -12c-104 0 -193 87 -193 208c0 168 114 230 247 230c135 0 249 -62 249 -230c0 -57 -20 -124 -71 -216l-138 -254h-176zM362 479c0 48 -25 83 -83 83c-57 0 -81 -35 -81 -83s24 -83 81 -83c58 0 83 35 83 83z" />
    <glyph glyph-name="colon" unicode=":" horiz-adv-x="261" 
d="M216 156v-156h-156v156h156zM216 500v-156h-156v156h156z" />
    <glyph glyph-name="semicolon" unicode=";" horiz-adv-x="261" 
d="M216 156v-195l-156 -133v328h156zM216 500v-156h-156v156h156z" />
    <glyph glyph-name="less" unicode="&#x3c;" 
d="M443 410l-152 -74l152 -74v-170l-325 183v122l325 183v-170z" />
    <glyph glyph-name="equal" unicode="=" 
d="M86 340v142h389v-142h-389zM86 156v142h389v-142h-389z" />
    <glyph glyph-name="greater" unicode="&#x3e;" 
d="M269 336l-152 74v170l325 -183v-122l-325 -183v170z" />
    <glyph glyph-name="question" unicode="?" horiz-adv-x="487" 
d="M303 189h-140v65c0 48 6 76 43 112l44 42c35 33 56 55 56 99c0 33 -22 56 -59 56c-32 0 -61 -16 -61 -48h-155c0 129 98 185 216 185c120 0 225 -56 225 -193c0 -78 -37 -138 -97 -193l-36 -33c-20 -19 -36 -33 -36 -64v-28zM311 0v156h-156v-156h156z" />
    <glyph glyph-name="at" unicode="@" horiz-adv-x="898" 
d="M650 484v-235c0 -44 5 -65 34 -65c25 0 44 24 44 117c0 197 -123 258 -279 258c-209 0 -269 -146 -269 -283c0 -201 119 -282 274 -282c96 0 150 17 222 53l54 -108c-54 -38 -145 -71 -281 -71c-217 0 -419 133 -419 408c0 267 197 409 419 409c249 0 429 -139 429 -385
c0 -157 -71 -242 -189 -242c-64 0 -109 18 -138 63c-24 -42 -65 -63 -132 -63c-104 0 -168 71 -168 190v52c0 131 73 189 168 189c33 0 60 -7 81 -19v14h150zM446 184c40 0 54 17 54 67v53c0 49 -19 59 -54 59c-34 0 -45 -26 -45 -67v-35c0 -59 13 -77 45 -77z" />
    <glyph glyph-name="A" unicode="A" horiz-adv-x="620" 
d="M167 0h-177l240 690h160l240 -690h-177l-37 118h-213zM310 460l-64 -204h127z" />
    <glyph glyph-name="B" unicode="&#xe000;" horiz-adv-x="611" 
d="M60 690h241c163 0 258 -57 258 -183c0 -71 -31 -112 -79 -144c63 -31 101 -80 101 -165c0 -110 -74 -198 -258 -198h-263v690zM226 289v-151h79c74 0 110 25 110 76c0 56 -38 75 -122 75h-67zM226 553v-126h70c67 0 97 21 97 61c0 41 -21 65 -112 65h-55z" />
    <glyph glyph-name="B" unicode="B" horiz-adv-x="611" 
d="M60 690h241c163 0 258 -57 258 -183c0 -71 -31 -112 -79 -144c63 -31 101 -80 101 -165c0 -110 -74 -198 -258 -198h-263v690zM226 289v-151h79c74 0 110 25 110 76c0 56 -38 75 -122 75h-67zM226 553v-126h70c67 0 97 21 97 61c0 41 -21 65 -112 65h-55z" />
    <glyph glyph-name="C" unicode="C" horiz-adv-x="601" 
d="M571 477h-158c-7 44 -37 85 -96 85c-69 0 -106 -50 -106 -163v-108c0 -108 36 -163 106 -163c59 0 86 30 96 85h158c-24 -155 -108 -223 -254 -223c-157 0 -272 95 -272 301v108c0 208 115 301 272 301c137 0 231 -73 254 -223z" />
    <glyph glyph-name="D" unicode="D" horiz-adv-x="634" 
d="M317 0h-257v690h257c157 0 272 -77 272 -295v-100c0 -216 -115 -295 -272 -295zM317 138c86 0 106 64 106 157v100c0 93 -20 157 -106 157h-91v-414h91z" />
    <glyph glyph-name="E" unicode="&#xe001;" horiz-adv-x="521" 
d="M60 690h436v-138h-270v-126h240v-138h-240v-150h270v-138h-436v690z" />
    <glyph glyph-name="E" unicode="E" horiz-adv-x="521" 
d="M60 690h436v-138h-270v-126h240v-138h-240v-150h270v-138h-436v690z" />
    <glyph glyph-name="F" unicode="F" horiz-adv-x="516" 
d="M60 690h436v-138h-270v-142h240v-138h-240v-272h-166v690z" />
    <glyph glyph-name="G" unicode="G" horiz-adv-x="616" 
d="M320 365h251v-74c0 -206 -97 -301 -254 -301s-272 95 -272 301v94c0 222 115 315 272 315c150 0 234 -88 254 -223h-158c-7 43 -36 85 -96 85c-69 0 -106 -50 -106 -163v-108c0 -113 37 -163 106 -163c67 0 89 42 95 99h-92v138z" />
    <glyph glyph-name="H" unicode="H" horiz-adv-x="664" 
d="M226 690v-264h212v264h166v-690h-166v288h-212v-288h-166v690h166z" />
    <glyph glyph-name="I" unicode="I" horiz-adv-x="306" 
d="M236 690v-690h-166v690h166z" />
    <glyph glyph-name="J" unicode="J" horiz-adv-x="516" 
d="M-15 102l135 76c22 -32 56 -50 87 -50c52 0 83 26 83 128v434h166v-434c0 -194 -91 -266 -236 -266c-111 0 -185 42 -235 112z" />
    <glyph glyph-name="K" unicode="K" horiz-adv-x="648" 
d="M633 0h-198l-149 265l-60 -82v-183h-166v690h166v-256l178 256h193l-204 -279z" />
    <glyph glyph-name="L" unicode="L" horiz-adv-x="506" 
d="M226 690v-552h270v-138h-436v690h166z" />
    <glyph glyph-name="M" unicode="M" horiz-adv-x="802" 
d="M214 690l187 -350l186 350h155v-690h-156v390l-142 -276h-89l-139 273v-387h-156v690h154z" />
    <glyph glyph-name="N" unicode="N" horiz-adv-x="664" 
d="M448 690h156v-690h-134l-254 382v-382h-156v690h132l256 -387v387z" />
    <glyph glyph-name="O" unicode="O" horiz-adv-x="634" 
d="M589 291c0 -206 -115 -301 -272 -301s-272 95 -272 301v108c0 208 115 301 272 301s272 -93 272 -301v-108zM211 399v-108c0 -113 37 -163 106 -163s106 50 106 163v108c0 113 -37 163 -106 163s-106 -50 -106 -163z" />
    <glyph glyph-name="P" unicode="P" horiz-adv-x="591" 
d="M320 233h-94v-233h-166v690h260c159 0 261 -70 261 -224c0 -153 -101 -233 -261 -233zM226 371h64c87 0 125 26 125 95c0 56 -38 86 -125 86h-64v-181z" />
    <glyph glyph-name="Q" unicode="Q" horiz-adv-x="645" 
d="M589 291c0 -60 -10 -110 -27 -151l98 -81l-85 -103l-97 79c-44 -31 -99 -45 -161 -45c-157 0 -272 95 -272 301v108c0 208 115 301 272 301s272 -93 272 -301v-108zM211 399v-108c0 -113 37 -163 106 -163c15 0 28 2 40 7l-65 53l86 105l44 -37c1 11 1 23 1 35v108
c0 113 -37 163 -106 163s-106 -50 -106 -163z" />
    <glyph glyph-name="R" unicode="R" horiz-adv-x="624" 
d="M609 0h-182l-115 261h-86v-261h-166v690h260c159 0 261 -73 261 -217c0 -90 -40 -151 -110 -183zM226 399h74c67 0 115 9 115 74c0 66 -48 79 -115 79h-74v-153z" />
    <glyph glyph-name="S" unicode="&#xe002;" horiz-adv-x="577" 
d="M542 587l-123 -88c-27 46 -61 63 -123 63c-55 0 -79 -25 -79 -60c0 -41 36 -64 123 -89c150 -43 207 -99 207 -217c0 -125 -84 -206 -241 -206c-126 0 -211 31 -276 113l124 87c34 -43 76 -62 138 -62c64 0 89 27 89 60c0 40 -28 60 -130 93c-140 45 -200 109 -200 220
c0 114 75 199 243 199c110 0 199 -37 248 -113z" />
    <glyph glyph-name="S" unicode="S" horiz-adv-x="577" 
d="M542 587l-123 -88c-27 46 -61 63 -123 63c-55 0 -79 -25 -79 -60c0 -41 36 -64 123 -89c150 -43 207 -99 207 -217c0 -125 -84 -206 -241 -206c-126 0 -211 31 -276 113l124 87c34 -43 76 -62 138 -62c64 0 89 27 89 60c0 40 -28 60 -130 93c-140 45 -200 109 -200 220
c0 114 75 199 243 199c110 0 199 -37 248 -113z" />
    <glyph glyph-name="T" unicode="T" horiz-adv-x="546" 
d="M10 690h526v-138h-180v-552h-166v552h-180v138z" />
    <glyph glyph-name="U" unicode="U" horiz-adv-x="664" 
d="M438 690h166v-411c0 -204 -119 -289 -272 -289s-272 85 -272 288v412h166v-412c0 -101 30 -150 106 -150s106 49 106 150v412z" />
    <glyph glyph-name="V" unicode="V" horiz-adv-x="621" 
d="M0 690h181l129 -417l130 417h181l-236 -690h-149z" />
    <glyph glyph-name="W" unicode="W" horiz-adv-x="912" 
d="M455 446l-140 -446h-156l-154 690h180l75 -412l122 412h145l125 -415l75 415h180l-154 -690h-157z" />
    <glyph glyph-name="X" unicode="X" horiz-adv-x="612" 
d="M189 0h-179l188 356l-167 334h179l96 -202l96 202h179l-168 -334l189 -356h-179l-117 217z" />
    <glyph glyph-name="Y" unicode="Y" horiz-adv-x="596" 
d="M0 690h191l107 -237l107 237h191l-215 -414v-276h-166v276z" />
    <glyph glyph-name="Z" unicode="Z" horiz-adv-x="519" 
d="M30 690h459v-108l-250 -444h260v-138h-469v108l254 444h-254v138z" />
    <glyph glyph-name="bracketleft" unicode="[" horiz-adv-x="335" 
d="M70 -102v894h255v-126h-105v-642h105v-126h-255z" />
    <glyph glyph-name="backslash" unicode="\" horiz-adv-x="485" 
d="M14 812h135l336 -928h-135z" />
    <glyph glyph-name="bracketright" unicode="]" horiz-adv-x="335" 
d="M10 792h255v-894h-255v122h105v650h-105v122z" />
    <glyph glyph-name="asciicircum" unicode="^" 
d="M215 690h128l176 -253h-170l-69 100l-59 -100h-180z" />
    <glyph glyph-name="underscore" unicode="_" horiz-adv-x="526" 
d="M0 -53h526v-122h-526v122z" />
    <glyph glyph-name="grave" unicode="`" horiz-adv-x="346" 
d="M221 725l70 -158h-145l-91 158h166z" />
    <glyph glyph-name="a" unicode="a" horiz-adv-x="484" 
d="M20 149c0 105 80 156 184 156h89v15c0 49 -9 68 -79 68c-43 0 -63 -8 -81 -34l-105 73c39 62 97 83 203 83c130 0 208 -37 208 -191v-319h-146v41c-17 -27 -44 -51 -99 -51c-98 0 -174 54 -174 159zM293 184v15h-68c-38 0 -59 -13 -59 -46c0 -29 23 -45 61 -45
c50 0 66 30 66 76z" />
    <glyph glyph-name="b" unicode="&#xe003;" horiz-adv-x="505" 
d="M185 690v-212c27 26 62 32 94 32c118 0 196 -77 196 -230v-58c0 -140 -66 -232 -196 -232c-41 0 -72 11 -94 32v-22h-140v690h140zM255 116c62 0 70 47 70 113v44c0 74 -16 111 -70 111c-52 0 -69 -33 -70 -100v-55c0 -66 16 -113 70 -113z" />
    <glyph glyph-name="b" unicode="b" horiz-adv-x="505" 
d="M185 690v-212c27 26 62 32 94 32c118 0 196 -77 196 -230v-58c0 -140 -66 -232 -196 -232c-41 0 -72 11 -94 32v-22h-140v690h140zM255 116c62 0 70 47 70 113v44c0 74 -16 111 -70 111c-52 0 -69 -33 -70 -100v-55c0 -66 16 -113 70 -113z" />
    <glyph glyph-name="c" unicode="c" horiz-adv-x="447" 
d="M331 153l111 -77c-37 -60 -92 -86 -186 -86c-146 0 -226 92 -226 226v70c0 147 80 224 236 224c79 0 142 -29 176 -86l-112 -78c-14 20 -31 38 -68 38c-66 0 -82 -37 -82 -111v-44c0 -66 8 -113 82 -113c34 0 53 11 69 37z" />
    <glyph glyph-name="d" unicode="d" horiz-adv-x="515" 
d="M320 483v207h150v-690h-150v22c-24 -20 -55 -32 -94 -32c-128 0 -196 92 -196 226v70c0 147 80 224 196 224c35 0 67 -8 94 -27zM250 116c62 0 70 47 70 113v55c0 67 -19 100 -70 100c-54 0 -70 -37 -70 -111v-44c0 -66 8 -113 70 -113z" />
    <glyph glyph-name="e" unicode="e" horiz-adv-x="485" 
d="M332 153l110 -77c-35 -61 -95 -86 -186 -86c-158 0 -226 102 -226 226v70c0 155 80 224 210 224c145 0 210 -83 210 -239v-59h-270c2 -57 16 -96 77 -96c47 0 57 14 75 37zM241 384c-39 0 -56 -27 -60 -72h119c-3 55 -24 72 -59 72z" />
    <glyph glyph-name="f" unicode="f" horiz-adv-x="309" 
d="M10 500h64v22c0 141 59 168 181 168h44v-130h-27c-37 0 -48 -17 -48 -57v-3h75v-126h-75v-374h-150v374h-64v126z" />
    <glyph glyph-name="g" unicode="g" horiz-adv-x="515" 
d="M320 483v17h150v-490c0 -180 -102 -206 -224 -206c-96 0 -157 22 -206 93l98 71c22 -27 50 -40 88 -40c70 0 94 9 94 82v9c-25 -19 -57 -29 -94 -29c-128 0 -196 92 -196 226v70c0 147 80 224 196 224c38 0 69 -10 94 -27zM250 116c57 0 70 40 70 98v70
c0 67 -19 100 -70 100c-54 0 -70 -37 -70 -111v-44c0 -66 8 -113 70 -113z" />
    <glyph glyph-name="h" unicode="h" horiz-adv-x="526" 
d="M45 0v690h150v-224c16 19 52 44 102 44c98 0 184 -44 184 -196v-314h-150v285c0 67 -16 97 -64 97c-52 0 -72 -32 -72 -96v-286h-150z" />
    <glyph glyph-name="i" unicode="i" horiz-adv-x="270" 
d="M60 0v500h150v-500h-150zM55 550v140h160v-140h-160z" />
    <glyph glyph-name="j" unicode="j" horiz-adv-x="258" 
d="M208 500v-523c0 -139 -72 -167 -208 -167v128c39 0 58 13 58 57v505h150zM53 550v140h160v-140h-160z" />
    <glyph glyph-name="k" unicode="k" horiz-adv-x="509" 
d="M305 500h176l-155 -202l183 -298h-172l-108 171l-34 -44v-127h-150v690h150v-350z" />
    <glyph glyph-name="l" unicode="l" horiz-adv-x="288" 
d="M45 163v527h150v-494c0 -54 23 -68 63 -68v-128c-139 0 -213 28 -213 163z" />
    <glyph glyph-name="m" unicode="m" horiz-adv-x="792" 
d="M45 0v500h146v-38c17 22 53 48 105 48c57 0 106 -21 137 -63c31 34 77 63 141 63c110 0 173 -66 173 -196v-314h-150v285c0 67 -17 97 -64 97c-36 0 -62 -22 -62 -87v-295h-150v285c0 74 -24 97 -62 97c-37 0 -64 -24 -64 -96v-286h-150z" />
    <glyph glyph-name="n" unicode="n" horiz-adv-x="526" 
d="M45 0v500h146v-38c16 20 53 48 106 48c98 0 184 -44 184 -196v-314h-150v285c0 67 -16 97 -64 97c-52 0 -72 -32 -72 -96v-286h-150z" />
    <glyph glyph-name="o" unicode="o" horiz-adv-x="500" 
d="M470 280v-58c0 -140 -66 -232 -220 -232c-152 0 -220 92 -220 232v58c0 153 80 230 220 230c142 0 220 -77 220 -230zM250 116c62 0 70 47 70 113v44c0 74 -16 111 -70 111s-70 -37 -70 -111v-44c0 -66 8 -113 70 -113z" />
    <glyph glyph-name="p" unicode="p" horiz-adv-x="515" 
d="M485 286v-70c0 -130 -66 -226 -192 -226c-45 0 -76 7 -98 20v-200h-150v690h150v-25c23 22 55 35 99 35c113 0 191 -81 191 -224zM265 116c62 0 70 47 70 113v44c0 74 -16 111 -70 111s-70 -37 -70 -111v-59c0 -58 12 -98 70 -98z" />
    <glyph glyph-name="q" unicode="q" horiz-adv-x="515" 
d="M320 484v16h150v-690h-150v212c-25 -21 -57 -32 -94 -32c-128 0 -196 92 -196 226v70c0 147 80 224 196 224c39 0 70 -10 94 -26zM250 116c62 0 70 47 70 113v55c0 67 -19 100 -70 100c-54 0 -70 -37 -70 -111v-44c0 -66 8 -113 70 -113z" />
    <glyph glyph-name="r" unicode="r" horiz-adv-x="417" 
d="M427 426l-112 -80c-9 15 -23 36 -52 36c-43 0 -68 -30 -68 -97v-285h-150v500h146v-38c15 19 48 48 105 48s102 -28 131 -84z" />
    <glyph glyph-name="s" unicode="&#xe004;" horiz-adv-x="463" 
d="M426 427l-111 -80c-19 22 -39 35 -85 35c-21 0 -47 -4 -47 -26c0 -17 16 -25 62 -34c137 -26 188 -81 188 -173c0 -100 -71 -159 -200 -159c-102 0 -168 22 -213 83l116 84c17 -23 37 -39 94 -39c33 0 53 9 53 27c0 19 -17 26 -64 36c-113 25 -186 71 -186 169
c0 100 72 160 200 160c82 0 154 -19 193 -83z" />
    <glyph glyph-name="s" unicode="s" horiz-adv-x="463" 
d="M426 427l-111 -80c-19 22 -39 35 -85 35c-21 0 -47 -4 -47 -26c0 -17 16 -25 62 -34c137 -26 188 -81 188 -173c0 -100 -71 -159 -200 -159c-102 0 -168 22 -213 83l116 84c17 -23 37 -39 94 -39c33 0 53 9 53 27c0 19 -17 26 -64 36c-113 25 -186 71 -186 169
c0 100 72 160 200 160c82 0 154 -19 193 -83z" />
    <glyph glyph-name="t" unicode="t" horiz-adv-x="339" 
d="M10 374v126h64v110h150v-110h90v-126h-90v-187c0 -40 11 -57 48 -57h42v-130h-59c-122 0 -181 27 -181 168v206h-64z" />
    <glyph glyph-name="u" unicode="u" horiz-adv-x="526" 
d="M481 500v-500h-147v39c-20 -32 -43 -49 -105 -49c-98 0 -184 48 -184 198v312h150v-284c0 -68 16 -98 66 -98c51 0 70 28 70 97v285h150z" />
    <glyph glyph-name="v" unicode="v" horiz-adv-x="504" 
d="M344 500h165l-185 -500h-140l-189 500h165l92 -288z" />
    <glyph glyph-name="w" unicode="&#xe005;" horiz-adv-x="716" 
d="M358 284l-103 -284h-120l-135 500h155l57 -255l89 255h107l95 -255l58 255h155l-135 -500h-120z" />
    <glyph glyph-name="w" unicode="w" horiz-adv-x="716" 
d="M358 284l-103 -284h-120l-135 500h155l57 -255l89 255h107l95 -255l58 255h155l-135 -500h-120z" />
    <glyph glyph-name="x" unicode="x" horiz-adv-x="496" 
d="M491 0h-164l-79 136l-79 -136h-164l156 256l-146 244h164l69 -127l69 127h164l-146 -244z" />
    <glyph glyph-name="y" unicode="&#xe006;" horiz-adv-x="485" 
d="M5 500h157l93 -282l85 282h150l-175 -526c-47 -141 -99 -164 -239 -164v132c69 0 95 10 111 51z" />
    <glyph glyph-name="y" unicode="y" horiz-adv-x="485" 
d="M5 500h157l93 -282l85 282h150l-175 -526c-47 -141 -99 -164 -239 -164v132c69 0 95 10 111 51z" />
    <glyph glyph-name="z" unicode="z" horiz-adv-x="448" 
d="M25 102l198 272h-194v126h389v-102l-196 -272h206v-126h-403v102z" />
    <glyph glyph-name="braceleft" unicode="{" horiz-adv-x="333" 
d="M250 595v-179c0 -43 -14 -60 -45 -70c31 -10 45 -41 45 -70v-179c0 -58 12 -66 54 -66h9v-126h-49c-102 0 -164 25 -164 155v168c0 38 -15 52 -50 52h-19v132h19c35 0 50 14 50 52v168c0 130 62 155 164 155h49v-126h-9c-42 0 -54 -8 -54 -66z" />
    <glyph glyph-name="bar" unicode="|" horiz-adv-x="307" 
d="M229 812v-928h-144v928h144z" />
    <glyph glyph-name="braceright" unicode="}" horiz-adv-x="317" 
d="M94 416v179c0 58 -12 66 -54 66h-9v126h49c102 0 164 -25 164 -155v-168c0 -38 15 -52 50 -52h19v-132h-19c-35 0 -50 -14 -50 -52v-168c0 -130 -62 -155 -164 -155h-49v126h9c42 0 54 8 54 66v179c0 29 14 60 45 70c-31 10 -45 27 -45 70z" />
    <glyph glyph-name="asciitilde" unicode="~" 
d="M365 251c-88 0 -113 44 -172 44c-37 0 -61 -16 -82 -44l-100 81c42 52 101 91 182 91c91 0 113 -44 172 -44c37 0 62 15 83 44l100 -81c-45 -55 -103 -91 -183 -91z" />
    <glyph glyph-name="uni00A0" unicode="&#xa0;" horiz-adv-x="250" 
 />
    <glyph glyph-name="exclamdown" unicode="&#xa1;" horiz-adv-x="266" 
d="M206 -190v501h-146v-501h146zM211 500v-156h-156v156h156z" />
    <glyph glyph-name="cent" unicode="&#xa2;" 
d="M371 157l111 -77c-28 -45 -65 -70 -120 -80v-116h-134v117c-103 25 -158 107 -158 219v62c0 120 53 193 158 216v124h134v-122c52 -11 94 -37 120 -80l-112 -78c-14 20 -31 38 -68 38c-66 0 -82 -37 -82 -111v-36c0 -66 8 -113 82 -113c34 0 53 11 69 37z" />
    <glyph glyph-name="sterling" unicode="&#xa3;" 
d="M30 0v138h73v120h-73v138h73v41c0 195 96 263 224 263c100 0 165 -32 217 -112l-135 -76c-15 22 -39 50 -73 50c-36 0 -67 -28 -67 -125v-41h120v-138h-120v-120h250v-138h-489z" />
    <glyph glyph-name="currency" unicode="&#xa4;" 
d="M82 366c0 30 6 58 18 84l-84 84l97 97l83 -83c25 12 54 19 85 19c30 0 59 -7 85 -19l84 84l97 -97l-84 -84c12 -26 19 -55 19 -85c0 -31 -7 -59 -19 -85l84 -84l-97 -97l-85 84c-25 -12 -54 -18 -84 -18c-31 0 -59 6 -85 18l-83 -83l-97 97l84 84c-12 25 -18 54 -18 84z
M200 366c0 -47 35 -85 81 -85c48 0 83 38 83 85s-35 85 -83 85c-46 0 -81 -38 -81 -85z" />
    <glyph glyph-name="yen" unicode="&#xa5;" 
d="M62 234h135v42h-135v128h63l-105 286h186l74 -284l74 284h186l-106 -286h64v-128h-135v-42h135v-128h-135v-106h-166v106h-135v128z" />
    <glyph glyph-name="brokenbar" unicode="&#xa6;" horiz-adv-x="278" 
d="M229 243v-243h-166v243h166zM229 690v-243h-166v243h166z" />
    <glyph glyph-name="section" unicode="&#xa7;" horiz-adv-x="549" 
d="M69 -29h146c1 -19 7 -37 36 -37c25 0 36 14 36 31c0 22 -14 46 -70 67c-125 47 -177 98 -177 214c0 78 34 132 88 163c-35 30 -56 70 -56 123c0 100 73 159 187 159c121 0 180 -54 180 -162h-146c-1 19 -7 37 -36 37c-25 0 -36 -14 -36 -31c0 -22 14 -46 78 -70
c120 -45 169 -98 169 -215c0 -74 -35 -128 -88 -159c34 -31 56 -70 56 -123c0 -100 -73 -159 -187 -159c-121 0 -180 54 -180 162zM254 183c42 0 67 25 67 67c0 44 -27 67 -67 67c-42 0 -67 -25 -67 -67s25 -67 67 -67z" />
    <glyph glyph-name="dieresis" unicode="&#xa8;" horiz-adv-x="433" 
d="M46 560v130h140v-130h-140zM246 560v130h140v-130h-140z" />
    <glyph glyph-name="copyright" unicode="&#xa9;" horiz-adv-x="945" 
d="M26 250c0 246 197 440 440 440s440 -194 440 -440s-197 -440 -440 -440s-440 194 -440 440zM165 250c0 -171 133 -307 301 -307c169 0 299 136 299 307s-130 306 -299 306c-168 0 -301 -135 -301 -306zM543 153l111 -77c-37 -60 -92 -86 -186 -86
c-146 0 -226 92 -226 226v70c0 147 80 224 236 224c79 0 142 -29 176 -86l-112 -78c-14 20 -31 38 -68 38c-66 0 -82 -37 -82 -111v-44c0 -66 8 -113 82 -113c34 0 53 11 69 37z" />
    <glyph glyph-name="ordfeminine" unicode="&#xaa;" horiz-adv-x="316" 
d="M12 467c0 67 40 101 121 101h53v9c0 26 -8 38 -44 38c-31 0 -43 -10 -54 -31l-70 45c23 45 64 63 137 63c86 0 133 -26 133 -101v-217h-102v20c-15 -17 -34 -24 -67 -24c-54 0 -107 27 -107 97zM186 486v8h-36c-25 0 -34 -8 -34 -25c0 -16 13 -22 31 -22c23 0 39 6 39 39
z" />
    <glyph glyph-name="guillemotleft" unicode="&#xab;" horiz-adv-x="519" 
d="M30 283l232 231v-162l-70 -69l70 -69v-162zM252 283l232 231v-162l-70 -69l70 -69v-162z" />
    <glyph glyph-name="logicalnot" unicode="&#xac;" horiz-adv-x="550" 
d="M497 157h-156v137h-297v128h453v-265z" />
    <glyph glyph-name="uni00AD" unicode="&#xad;" horiz-adv-x="319" 
d="M30 223v132h259v-132h-259z" />
    <glyph glyph-name="registered" unicode="&#xae;" horiz-adv-x="529" 
d="M-6 501c0 146 120 266 266 266s266 -120 266 -266s-120 -266 -266 -266s-266 120 -266 266zM77 501c0 -101 82 -183 183 -183s182 82 182 183s-81 182 -182 182s-183 -81 -183 -182zM226 374h-74v261h113c72 0 103 -40 103 -85c0 -36 -17 -61 -44 -75l57 -101h-84l-45 86
h-26v-86zM226 522h23c29 0 41 6 41 27c0 18 -13 24 -36 24h-28v-51z" />
    <glyph glyph-name="macron" unicode="&#xaf;" horiz-adv-x="408" 
d="M59 560v130h289v-130h-289z" />
    <glyph glyph-name="degree" unicode="&#xb0;" horiz-adv-x="308" 
d="M9 559c0 82 65 145 145 145s145 -63 145 -145s-65 -145 -145 -145s-145 63 -145 145zM109 559c0 -26 20 -46 45 -46s43 20 43 46c0 25 -18 45 -43 45s-45 -20 -45 -45z" />
    <glyph glyph-name="plusminus" unicode="&#xb1;" horiz-adv-x="509" 
d="M60 331v126h130v132h127v-132h132v-126h-132v-93h-127v93h-130zM60 92v126h389v-126h-389z" />
    <glyph glyph-name="twosuperior" unicode="&#xb2;" horiz-adv-x="278" 
d="M273 451v-77h-245v70l100 82c21 18 35 33 35 52c0 13 -7 23 -23 23c-14 0 -24 -10 -25 -26h-96c0 80 60 118 126 118c73 0 123 -40 123 -109c0 -46 -30 -80 -66 -107l-33 -26h104z" />
    <glyph glyph-name="threesuperior" unicode="&#xb3;" horiz-adv-x="301" 
d="M124 504v64h10c19 0 30 8 30 23c0 13 -9 20 -22 20c-15 0 -23 -10 -25 -22h-98c0 66 55 104 127 104c71 0 116 -34 116 -91c0 -34 -19 -55 -38 -64c29 -12 45 -38 45 -67c0 -69 -54 -100 -123 -100c-84 0 -128 46 -131 107h100c2 -13 10 -21 27 -21c14 0 25 7 25 23
c0 14 -9 24 -33 24h-10z" />
    <glyph glyph-name="acute" unicode="&#xb4;" horiz-adv-x="416" 
d="M90 567l70 158h166l-91 -158h-145z" />
    <glyph glyph-name="mu" unicode="&#xb5;" horiz-adv-x="526" 
d="M195 -137h-150v637h150v-283c0 -88 29 -99 69 -99c48 0 67 29 67 98v284h130v-500h-127v39c-20 -35 -51 -49 -88 -49c-20 0 -37 3 -51 9v-136z" />
    <glyph glyph-name="paragraph" unicode="&#xb6;" horiz-adv-x="684" 
d="M615 690v-880h-156v742h-68v-742h-156v500c-105 0 -190 85 -190 190s85 190 190 190h380z" />
    <glyph glyph-name="periodcentered" unicode="&#xb7;" horiz-adv-x="216" 
d="M196 436v-176h-176v176h176z" />
    <glyph glyph-name="cedilla" unicode="&#xb8;" horiz-adv-x="354" 
d="M113 -73l21 98l92 -3l-11 -44c31 -14 48 -38 48 -71c0 -54 -50 -87 -122 -87c-24 0 -43 2 -51 4l17 71c6 -1 11 -2 19 -2c20 0 26 8 26 17c0 10 -10 17 -39 17z" />
    <glyph glyph-name="onesuperior" unicode="&#xb9;" horiz-adv-x="277" 
d="M231 690v-316h-104v208l-57 -35v100l67 43h94z" />
    <glyph glyph-name="ordmasculine" unicode="&#xba;" horiz-adv-x="356" 
d="M311 555v-45c0 -90 -54 -139 -143 -139c-82 0 -142 44 -142 139v45c0 97 62 138 142 138c82 0 143 -40 143 -138zM168 465c26 0 39 17 39 46v42c0 33 -15 46 -39 46s-38 -13 -38 -46v-42c0 -30 11 -46 38 -46z" />
    <glyph glyph-name="guillemotright" unicode="&#xbb;" horiz-adv-x="519" 
d="M257 514l232 -231l-232 -231v162l70 69l-70 69v162zM35 514l232 -231l-232 -231v162l70 69l-70 69v162z" />
    <glyph glyph-name="onequarter" unicode="&#xbc;" horiz-adv-x="684" 
d="M231 690v-316h-104v208l-57 -35v100l67 43h94zM466 316h120l-123 -194h35v39h104v-39h39v-81h-39v-41h-104v41h-164v74zM489 690h151l-474 -690h-152z" />
    <glyph glyph-name="onehalf" unicode="&#xbd;" horiz-adv-x="671" 
d="M231 690v-316h-104v208l-57 -35v100l67 43h94zM633 77v-77h-245v70l100 82c21 18 35 33 35 52c0 13 -7 23 -23 23c-14 0 -24 -10 -25 -26h-96c0 80 60 118 126 118c73 0 123 -40 123 -109c0 -46 -30 -80 -66 -107l-33 -26h104zM489 690h151l-474 -690h-152z" />
    <glyph glyph-name="threequarters" unicode="&#xbe;" horiz-adv-x="645" 
d="M124 504v64h10c19 0 30 8 30 23c0 13 -9 20 -22 20c-15 0 -23 -10 -25 -22h-98c0 66 55 104 127 104c71 0 116 -34 116 -91c0 -34 -19 -55 -38 -64c29 -12 45 -38 45 -67c0 -69 -54 -100 -123 -100c-84 0 -128 46 -131 107h100c2 -13 10 -21 27 -21c14 0 25 7 25 23
c0 14 -9 24 -33 24h-10zM466 316h120l-123 -194h35v39h104v-39h39v-81h-39v-41h-104v41h-164v74zM489 690h151l-474 -690h-152z" />
    <glyph glyph-name="questiondown" unicode="&#xbf;" horiz-adv-x="487" 
d="M200 311h140v-65c0 -48 -6 -76 -43 -112l-44 -42c-35 -33 -56 -55 -56 -99c0 -33 22 -56 59 -56c32 0 61 16 61 48h155c0 -129 -98 -185 -216 -185c-120 0 -225 56 -225 193c0 78 37 138 97 193l36 33c20 19 36 33 36 64v28zM192 344v156h156v-156h-156z" />
    <glyph glyph-name="Agrave" unicode="&#xc0;" horiz-adv-x="620" 
d="M167 0h-177l240 690h160l240 -690h-177l-37 118h-213zM310 460l-64 -204h127zM301 869l80 -129h-147l-103 129h170z" />
    <glyph glyph-name="Aacute" unicode="&#xc1;" horiz-adv-x="620" 
d="M167 0h-177l240 690h160l240 -690h-177l-37 118h-213zM310 460l-64 -204h127zM238 740l80 129h170l-103 -129h-147z" />
    <glyph glyph-name="Acircumflex" unicode="&#xc2;" horiz-adv-x="620" 
d="M167 0h-177l240 690h160l240 -690h-177l-37 118h-213zM310 460l-64 -204h127zM254 881h112l138 -142h-142l-52 56l-52 -56h-142z" />
    <glyph glyph-name="Atilde" unicode="&#xc3;" horiz-adv-x="620" 
d="M167 0h-177l240 690h160l240 -690h-177l-37 118h-213zM310 460l-64 -204h127zM374 731c-54 0 -87 30 -119 30c-19 0 -35 -9 -49 -27l-78 66c31 39 77 66 123 66c48 0 84 -30 118 -30c17 0 32 8 47 27l77 -66c-29 -38 -74 -66 -119 -66z" />
    <glyph glyph-name="Adieresis" unicode="&#xc4;" horiz-adv-x="620" 
d="M167 0h-177l240 690h160l240 -690h-177l-37 118h-213zM310 460l-64 -204h127zM140 739v130h140v-130h-140zM340 739v130h140v-130h-140z" />
    <glyph glyph-name="Aring" unicode="&#xc5;" horiz-adv-x="620" 
d="M167 0h-177l232 667c-20 17 -31 41 -31 70c0 61 49 99 119 99c71 0 120 -38 120 -99c0 -29 -12 -53 -32 -70l232 -667h-177l-37 118h-213zM310 460l-64 -204h127zM283 737c0 -14 9 -24 27 -24c19 0 27 10 27 24c0 15 -8 24 -27 24c-18 0 -27 -9 -27 -24z" />
    <glyph glyph-name="AE" unicode="&#xc6;" horiz-adv-x="912" 
d="M185 0h-195l391 690h506v-138h-270v-126h240v-138h-240v-150h270v-138h-436v128h-195zM333 266h118v212z" />
    <glyph glyph-name="Ccedilla" unicode="&#xc7;" horiz-adv-x="601" 
d="M258 -73l14 66c-134 17 -227 112 -227 298v108c0 208 115 301 272 301c137 0 231 -73 254 -223h-158c-7 44 -37 85 -96 85c-69 0 -106 -50 -106 -163v-108c0 -108 36 -163 106 -163c59 0 86 30 96 85h158c-22 -138 -90 -207 -208 -220l-3 -15c31 -14 48 -38 48 -71
c0 -54 -50 -87 -122 -87c-24 0 -43 2 -51 4l17 71c6 -1 11 -2 19 -2c20 0 26 8 26 17c0 10 -10 17 -39 17z" />
    <glyph glyph-name="Egrave" unicode="&#xc8;" horiz-adv-x="521" 
d="M60 690h436v-138h-270v-126h240v-138h-240v-150h270v-138h-436v690zM297 869l80 -129h-147l-103 129h170z" />
    <glyph glyph-name="Eacute" unicode="&#xc9;" horiz-adv-x="521" 
d="M60 690h436v-138h-270v-126h240v-138h-240v-150h270v-138h-436v690zM180 740l80 129h170l-103 -129h-147z" />
    <glyph glyph-name="Ecircumflex" unicode="&#xca;" horiz-adv-x="521" 
d="M60 690h436v-138h-270v-126h240v-138h-240v-150h270v-138h-436v690zM222 881h112l138 -142h-142l-52 56l-52 -56h-142z" />
    <glyph glyph-name="Edieresis" unicode="&#xcb;" horiz-adv-x="521" 
d="M60 690h436v-138h-270v-126h240v-138h-240v-150h270v-138h-436v690zM108 739v130h140v-130h-140zM308 739v130h140v-130h-140z" />
    <glyph glyph-name="Igrave" unicode="&#xcc;" horiz-adv-x="306" 
d="M236 690v-690h-166v690h166zM156 869l80 -129h-147l-103 129h170z" />
    <glyph glyph-name="Iacute" unicode="&#xcd;" horiz-adv-x="306" 
d="M236 690v-690h-166v690h166zM70 740l80 129h170l-103 -129h-147z" />
    <glyph glyph-name="Icircumflex" unicode="&#xce;" horiz-adv-x="306" 
d="M236 690v-690h-166v690h166zM97 881h112l138 -142h-142l-52 56l-52 -56h-142z" />
    <glyph glyph-name="Idieresis" unicode="&#xcf;" horiz-adv-x="306" 
d="M236 690v-690h-166v690h166zM-17 739v130h140v-130h-140zM183 739v130h140v-130h-140z" />
    <glyph glyph-name="Eth" unicode="&#xd0;" horiz-adv-x="632" 
d="M315 0h-257v288h-68v138h68v264h257c157 0 272 -77 272 -295v-100c0 -216 -115 -295 -272 -295zM315 138c86 0 106 64 106 157v100c0 93 -20 157 -106 157h-91v-126h115v-138h-115v-150h91z" />
    <glyph glyph-name="Ntilde" unicode="&#xd1;" horiz-adv-x="664" 
d="M448 690h156v-690h-134l-254 382v-382h-156v690h132l256 -387v387zM395 731c-54 0 -87 30 -119 30c-19 0 -35 -9 -49 -27l-78 66c31 39 77 66 123 66c48 0 84 -30 118 -30c17 0 32 8 47 27l77 -66c-29 -38 -74 -66 -119 -66z" />
    <glyph glyph-name="Ograve" unicode="&#xd2;" horiz-adv-x="634" 
d="M589 291c0 -206 -115 -301 -272 -301s-272 95 -272 301v108c0 208 115 301 272 301s272 -93 272 -301v-108zM211 399v-108c0 -113 37 -163 106 -163s106 50 106 163v108c0 113 -37 163 -106 163s-106 -50 -106 -163zM327 869l80 -129h-147l-103 129h170z" />
    <glyph glyph-name="Oacute" unicode="&#xd3;" horiz-adv-x="634" 
d="M589 291c0 -206 -115 -301 -272 -301s-272 95 -272 301v108c0 208 115 301 272 301s272 -93 272 -301v-108zM211 399v-108c0 -113 37 -163 106 -163s106 50 106 163v108c0 113 -37 163 -106 163s-106 -50 -106 -163zM242 740l80 129h170l-103 -129h-147z" />
    <glyph glyph-name="Ocircumflex" unicode="&#xd4;" horiz-adv-x="634" 
d="M589 291c0 -206 -115 -301 -272 -301s-272 95 -272 301v108c0 208 115 301 272 301s272 -93 272 -301v-108zM211 399v-108c0 -113 37 -163 106 -163s106 50 106 163v108c0 113 -37 163 -106 163s-106 -50 -106 -163zM261 881h112l138 -142h-142l-52 56l-52 -56h-142z" />
    <glyph glyph-name="Otilde" unicode="&#xd5;" horiz-adv-x="634" 
d="M589 291c0 -206 -115 -301 -272 -301s-272 95 -272 301v108c0 208 115 301 272 301s272 -93 272 -301v-108zM211 399v-108c0 -113 37 -163 106 -163s106 50 106 163v108c0 113 -37 163 -106 163s-106 -50 -106 -163zM381 731c-54 0 -87 30 -119 30c-19 0 -35 -9 -49 -27
l-78 66c31 39 77 66 123 66c48 0 84 -30 118 -30c17 0 32 8 47 27l77 -66c-29 -38 -74 -66 -119 -66z" />
    <glyph glyph-name="Odieresis" unicode="&#xd6;" horiz-adv-x="634" 
d="M589 291c0 -206 -115 -301 -272 -301s-272 95 -272 301v108c0 208 115 301 272 301s272 -93 272 -301v-108zM211 399v-108c0 -113 37 -163 106 -163s106 50 106 163v108c0 113 -37 163 -106 163s-106 -50 -106 -163zM147 739v130h140v-130h-140zM347 739v130h140v-130
h-140z" />
    <glyph glyph-name="multiply" unicode="&#xd7;" horiz-adv-x="594" 
d="M192 151l-91 91l112 112l-112 113l90 90l113 -113l114 113l90 -90l-113 -113l112 -112l-91 -91l-112 112z" />
    <glyph glyph-name="Oslash" unicode="&#xd8;" horiz-adv-x="634" 
d="M217 -116h-134l58 161c-60 49 -96 130 -96 246v108c0 208 115 301 272 301c20 0 40 -2 59 -5l43 117h134l-61 -167c60 -48 97 -129 97 -246v-108c0 -206 -115 -301 -272 -301c-21 0 -41 2 -60 5zM423 399c0 17 -1 32 -3 47l-115 -318h12c69 0 106 50 106 163v108z
M211 399v-108c0 -17 1 -33 2 -47l115 317c-4 1 -7 1 -11 1c-69 0 -106 -50 -106 -163z" />
    <glyph glyph-name="Ugrave" unicode="&#xd9;" horiz-adv-x="664" 
d="M438 690h166v-411c0 -204 -119 -289 -272 -289s-272 85 -272 288v412h166v-412c0 -101 30 -150 106 -150s106 49 106 150v412zM328 869l80 -129h-147l-103 129h170z" />
    <glyph glyph-name="Uacute" unicode="&#xda;" horiz-adv-x="664" 
d="M438 690h166v-411c0 -204 -119 -289 -272 -289s-272 85 -272 288v412h166v-412c0 -101 30 -150 106 -150s106 49 106 150v412zM256 740l80 129h170l-103 -129h-147z" />
    <glyph glyph-name="Ucircumflex" unicode="&#xdb;" horiz-adv-x="664" 
d="M438 690h166v-411c0 -204 -119 -289 -272 -289s-272 85 -272 288v412h166v-412c0 -101 30 -150 106 -150s106 49 106 150v412zM276 881h112l138 -142h-142l-52 56l-52 -56h-142z" />
    <glyph glyph-name="Udieresis" unicode="&#xdc;" horiz-adv-x="664" 
d="M438 690h166v-411c0 -204 -119 -289 -272 -289s-272 85 -272 288v412h166v-412c0 -101 30 -150 106 -150s106 49 106 150v412zM162 739v130h140v-130h-140zM362 739v130h140v-130h-140z" />
    <glyph glyph-name="Yacute" unicode="&#xdd;" horiz-adv-x="596" 
d="M0 690h191l107 -237l107 237h191l-215 -414v-276h-166v276zM216 740l80 129h170l-103 -129h-147z" />
    <glyph glyph-name="Thorn" unicode="&#xde;" horiz-adv-x="591" 
d="M320 133h-94v-133h-166v690h166v-100h94c159 0 261 -70 261 -224c0 -153 -101 -233 -261 -233zM226 271h64c87 0 125 26 125 95c0 56 -38 86 -125 86h-64v-181z" />
    <glyph glyph-name="germandbls" unicode="&#xdf;" horiz-adv-x="507" 
d="M462 565c0 -43 -17 -77 -61 -98c50 -18 61 -56 61 -115v-212c0 -120 -47 -140 -144 -140h-75v122h30c32 0 39 20 39 50v176c0 30 -7 50 -39 50h-30v112h30c30 0 39 19 39 41c0 24 -16 37 -49 37c-56 0 -68 -46 -68 -97v-491h-150v499c0 128 66 201 218 201
c145 0 199 -68 199 -135z" />
    <glyph glyph-name="agrave" unicode="&#xe0;" horiz-adv-x="484" 
d="M20 149c0 105 80 156 184 156h89v15c0 49 -9 68 -79 68c-43 0 -63 -8 -81 -34l-105 73c39 62 97 83 203 83c130 0 208 -37 208 -191v-319h-146v41c-17 -27 -44 -51 -99 -51c-98 0 -174 54 -174 159zM293 184v15h-68c-38 0 -59 -13 -59 -46c0 -29 23 -45 61 -45
c50 0 66 30 66 76zM257 725l70 -158h-145l-91 158h166z" />
    <glyph glyph-name="aacute" unicode="&#xe1;" horiz-adv-x="484" 
d="M20 149c0 105 80 156 184 156h89v15c0 49 -9 68 -79 68c-43 0 -63 -8 -81 -34l-105 73c39 62 97 83 203 83c130 0 208 -37 208 -191v-319h-146v41c-17 -27 -44 -51 -99 -51c-98 0 -174 54 -174 159zM293 184v15h-68c-38 0 -59 -13 -59 -46c0 -29 23 -45 61 -45
c50 0 66 30 66 76zM143 567l70 158h166l-91 -158h-145z" />
    <glyph glyph-name="acircumflex" unicode="&#xe2;" horiz-adv-x="484" 
d="M20 149c0 105 80 156 184 156h89v15c0 49 -9 68 -79 68c-43 0 -63 -8 -81 -34l-105 73c39 62 97 83 203 83c130 0 208 -37 208 -191v-319h-146v41c-17 -27 -44 -51 -99 -51c-98 0 -174 54 -174 159zM293 184v15h-68c-38 0 -59 -13 -59 -46c0 -29 23 -45 61 -45
c50 0 66 30 66 76zM184 709h106l111 -142h-122l-42 57l-42 -57h-122z" />
    <glyph glyph-name="atilde" unicode="&#xe3;" horiz-adv-x="484" 
d="M20 149c0 105 80 156 184 156h89v15c0 49 -9 68 -79 68c-43 0 -63 -8 -81 -34l-105 73c39 62 97 83 203 83c130 0 208 -37 208 -191v-319h-146v41c-17 -27 -44 -51 -99 -51c-98 0 -174 54 -174 159zM293 184v15h-68c-38 0 -59 -13 -59 -46c0 -29 23 -45 61 -45
c50 0 66 30 66 76zM308 557c-54 0 -87 30 -119 30c-19 0 -35 -9 -49 -27l-78 66c31 39 77 66 123 66c48 0 84 -30 118 -30c17 0 32 8 47 27l77 -66c-29 -38 -74 -66 -119 -66z" />
    <glyph glyph-name="adieresis" unicode="&#xe4;" horiz-adv-x="484" 
d="M20 149c0 105 80 156 184 156h89v15c0 49 -9 68 -79 68c-43 0 -63 -8 -81 -34l-105 73c39 62 97 83 203 83c130 0 208 -37 208 -191v-319h-146v41c-17 -27 -44 -51 -99 -51c-98 0 -174 54 -174 159zM293 184v15h-68c-38 0 -59 -13 -59 -46c0 -29 23 -45 61 -45
c50 0 66 30 66 76zM58 560v130h140v-130h-140zM258 560v130h140v-130h-140z" />
    <glyph glyph-name="aring" unicode="&#xe5;" horiz-adv-x="484" 
d="M20 149c0 105 80 156 184 156h89v15c0 49 -9 68 -79 68c-43 0 -63 -8 -81 -34l-105 73c39 62 97 83 203 83c130 0 208 -37 208 -191v-319h-146v41c-17 -27 -44 -51 -99 -51c-98 0 -174 54 -174 159zM293 184v15h-68c-38 0 -59 -13 -59 -46c0 -29 23 -45 61 -45
c50 0 66 30 66 76zM115 646c0 65 49 110 129 110c81 0 130 -45 130 -110c0 -64 -49 -109 -130 -109c-80 0 -129 45 -129 109zM217 646c0 -25 8 -37 27 -37c20 0 27 12 27 37c0 26 -7 37 -27 37c-19 0 -27 -11 -27 -37z" />
    <glyph glyph-name="ae" unicode="&#xe6;" horiz-adv-x="744" 
d="M591 153l110 -77c-35 -61 -96 -86 -185 -86c-76 0 -128 22 -160 61c-34 -37 -85 -61 -160 -61c-105 0 -176 57 -176 156c0 113 85 159 189 159h84v10c0 44 -1 73 -75 73c-57 0 -71 -14 -85 -34l-105 69c35 58 113 87 208 87c64 0 109 -13 139 -41c29 26 70 41 124 41
c127 0 210 -62 210 -240v-60h-270c2 -81 37 -94 80 -94c38 0 53 11 72 37zM293 182v17h-69c-34 0 -58 -13 -58 -46s27 -45 61 -45c41 0 66 21 66 74zM501 384c-38 0 -57 -24 -61 -74h119c-2 46 -16 74 -58 74z" />
    <glyph glyph-name="ccedilla" unicode="&#xe7;" horiz-adv-x="447" 
d="M198 -73l14 66c-118 17 -182 103 -182 223v70c0 147 80 224 236 224c79 0 142 -29 176 -86l-112 -78c-14 20 -31 38 -68 38c-66 0 -82 -37 -82 -111v-44c0 -66 8 -113 82 -113c34 0 53 11 69 37l111 -77c-31 -49 -73 -76 -139 -83l-3 -15c31 -14 48 -38 48 -71
c0 -54 -50 -87 -122 -87c-24 0 -43 2 -51 4l17 71c6 -1 11 -2 19 -2c20 0 26 8 26 17c0 10 -10 17 -39 17z" />
    <glyph glyph-name="egrave" unicode="&#xe8;" horiz-adv-x="485" 
d="M332 153l110 -77c-35 -61 -95 -86 -186 -86c-158 0 -226 102 -226 226v70c0 155 80 224 210 224c145 0 210 -83 210 -239v-59h-270c2 -57 16 -96 77 -96c47 0 57 14 75 37zM241 384c-39 0 -56 -27 -60 -72h119c-3 55 -24 72 -59 72zM269 725l70 -158h-145l-91 158h166z
" />
    <glyph glyph-name="eacute" unicode="&#xe9;" horiz-adv-x="485" 
d="M332 153l110 -77c-35 -61 -95 -86 -186 -86c-158 0 -226 102 -226 226v70c0 155 80 224 210 224c145 0 210 -83 210 -239v-59h-270c2 -57 16 -96 77 -96c47 0 57 14 75 37zM241 384c-39 0 -56 -27 -60 -72h119c-3 55 -24 72 -59 72zM153 567l70 158h166l-91 -158h-145z
" />
    <glyph glyph-name="ecircumflex" unicode="&#xea;" horiz-adv-x="485" 
d="M332 153l110 -77c-35 -61 -95 -86 -186 -86c-158 0 -226 102 -226 226v70c0 155 80 224 210 224c145 0 210 -83 210 -239v-59h-270c2 -57 16 -96 77 -96c47 0 57 14 75 37zM241 384c-39 0 -56 -27 -60 -72h119c-3 55 -24 72 -59 72zM187 709h106l111 -142h-122l-42 57
l-42 -57h-122z" />
    <glyph glyph-name="edieresis" unicode="&#xeb;" horiz-adv-x="485" 
d="M332 153l110 -77c-35 -61 -95 -86 -186 -86c-158 0 -226 102 -226 226v70c0 155 80 224 210 224c145 0 210 -83 210 -239v-59h-270c2 -57 16 -96 77 -96c47 0 57 14 75 37zM241 384c-39 0 -56 -27 -60 -72h119c-3 55 -24 72 -59 72zM70 560v130h140v-130h-140zM270 560
v130h140v-130h-140z" />
    <glyph glyph-name="igrave" unicode="&#xec;" horiz-adv-x="270" 
d="M60 0v500h150v-500h-150zM135 725l70 -158h-145l-91 158h166z" />
    <glyph glyph-name="iacute" unicode="&#xed;" horiz-adv-x="270" 
d="M60 0v500h150v-500h-150zM55 567l70 158h166l-91 -158h-145z" />
    <glyph glyph-name="icircumflex" unicode="&#xee;" horiz-adv-x="270" 
d="M60 0v500h150v-500h-150zM77 709h106l111 -142h-122l-42 57l-42 -57h-122z" />
    <glyph glyph-name="idieresis" unicode="&#xef;" horiz-adv-x="270" 
d="M60 0v500h150v-500h-150zM-40 560v130h140v-130h-140zM160 560v130h140v-130h-140z" />
    <glyph glyph-name="eth" unicode="&#xf0;" horiz-adv-x="510" 
d="M161 560l18 37c-16 6 -33 12 -52 20l48 95l51 -21l22 45l78 -40l-20 -40c121 -57 164 -110 164 -266v-168c0 -140 -66 -232 -220 -232c-152 0 -220 92 -220 232v58c0 153 80 230 213 230c38 0 75 -8 102 -28c-8 39 -30 58 -84 82l-21 -43zM250 116c62 0 70 47 70 113v44
c0 74 -16 111 -70 111s-70 -37 -70 -111v-44c0 -66 8 -113 70 -113z" />
    <glyph glyph-name="ntilde" unicode="&#xf1;" horiz-adv-x="526" 
d="M45 0v500h146v-38c16 20 53 48 106 48c98 0 184 -44 184 -196v-314h-150v285c0 67 -16 97 -64 97c-52 0 -72 -32 -72 -96v-286h-150zM326 557c-54 0 -87 30 -119 30c-19 0 -35 -9 -49 -27l-78 66c31 39 77 66 123 66c48 0 84 -30 118 -30c17 0 32 8 47 27l77 -66
c-29 -38 -74 -66 -119 -66z" />
    <glyph glyph-name="ograve" unicode="&#xf2;" horiz-adv-x="500" 
d="M470 280v-58c0 -140 -66 -232 -220 -232c-152 0 -220 92 -220 232v58c0 153 80 230 220 230c142 0 220 -77 220 -230zM250 116c62 0 70 47 70 113v44c0 74 -16 111 -70 111s-70 -37 -70 -111v-44c0 -66 8 -113 70 -113zM287 725l70 -158h-145l-91 158h166z" />
    <glyph glyph-name="oacute" unicode="&#xf3;" horiz-adv-x="500" 
d="M470 280v-58c0 -140 -66 -232 -220 -232c-152 0 -220 92 -220 232v58c0 153 80 230 220 230c142 0 220 -77 220 -230zM250 116c62 0 70 47 70 113v44c0 74 -16 111 -70 111s-70 -37 -70 -111v-44c0 -66 8 -113 70 -113zM171 567l70 158h166l-91 -158h-145z" />
    <glyph glyph-name="ocircumflex" unicode="&#xf4;" horiz-adv-x="500" 
d="M470 280v-58c0 -140 -66 -232 -220 -232c-152 0 -220 92 -220 232v58c0 153 80 230 220 230c142 0 220 -77 220 -230zM250 116c62 0 70 47 70 113v44c0 74 -16 111 -70 111s-70 -37 -70 -111v-44c0 -66 8 -113 70 -113zM197 709h106l111 -142h-122l-42 57l-42 -57h-122z
" />
    <glyph glyph-name="otilde" unicode="&#xf5;" horiz-adv-x="500" 
d="M470 280v-58c0 -140 -66 -232 -220 -232c-152 0 -220 92 -220 232v58c0 153 80 230 220 230c142 0 220 -77 220 -230zM250 116c62 0 70 47 70 113v44c0 74 -16 111 -70 111s-70 -37 -70 -111v-44c0 -66 8 -113 70 -113zM314 557c-54 0 -87 30 -119 30
c-19 0 -35 -9 -49 -27l-78 66c31 39 77 66 123 66c48 0 84 -30 118 -30c17 0 32 8 47 27l77 -66c-29 -38 -74 -66 -119 -66z" />
    <glyph glyph-name="odieresis" unicode="&#xf6;" horiz-adv-x="500" 
d="M470 280v-58c0 -140 -66 -232 -220 -232c-152 0 -220 92 -220 232v58c0 153 80 230 220 230c142 0 220 -77 220 -230zM250 116c62 0 70 47 70 113v44c0 74 -16 111 -70 111s-70 -37 -70 -111v-44c0 -66 8 -113 70 -113zM80 560v130h140v-130h-140zM280 560v130h140v-130
h-140z" />
    <glyph glyph-name="divide" unicode="&#xf7;" horiz-adv-x="509" 
d="M60 288v132h389v-132h-389zM187 117v135h135v-135h-135zM187 456v135h135v-135h-135z" />
    <glyph glyph-name="oslash" unicode="&#xf8;" horiz-adv-x="500" 
d="M141 -79h-77l48 107c-56 39 -82 107 -82 194v58c0 153 80 230 220 230c27 0 51 -3 74 -8l36 80h77l-49 -109c54 -37 82 -101 82 -193v-58c0 -140 -66 -232 -220 -232c-28 0 -52 3 -74 9zM250 116c62 0 70 47 70 113v44c0 16 -1 30 -3 42l-88 -197c6 -2 13 -2 21 -2z
M180 229c0 -17 0 -32 2 -45l88 198c-6 1 -13 2 -20 2c-54 0 -70 -37 -70 -111v-44z" />
    <glyph glyph-name="ugrave" unicode="&#xf9;" horiz-adv-x="526" 
d="M481 500v-500h-147v39c-20 -32 -43 -49 -105 -49c-98 0 -184 48 -184 198v312h150v-284c0 -68 16 -98 66 -98c51 0 70 28 70 97v285h150zM290 725l70 -158h-145l-91 158h166z" />
    <glyph glyph-name="uacute" unicode="&#xfa;" horiz-adv-x="526" 
d="M481 500v-500h-147v39c-20 -32 -43 -49 -105 -49c-98 0 -184 48 -184 198v312h150v-284c0 -68 16 -98 66 -98c51 0 70 28 70 97v285h150zM185 567l70 158h166l-91 -158h-145z" />
    <glyph glyph-name="ucircumflex" unicode="&#xfb;" horiz-adv-x="526" 
d="M481 500v-500h-147v39c-20 -32 -43 -49 -105 -49c-98 0 -184 48 -184 198v312h150v-284c0 -68 16 -98 66 -98c51 0 70 28 70 97v285h150zM210 709h106l111 -142h-122l-42 57l-42 -57h-122z" />
    <glyph glyph-name="udieresis" unicode="&#xfc;" horiz-adv-x="526" 
d="M481 500v-500h-147v39c-20 -32 -43 -49 -105 -49c-98 0 -184 48 -184 198v312h150v-284c0 -68 16 -98 66 -98c51 0 70 28 70 97v285h150zM93 560v130h140v-130h-140zM293 560v130h140v-130h-140z" />
    <glyph glyph-name="yacute" unicode="&#xfd;" horiz-adv-x="485" 
d="M5 500h157l93 -282l85 282h150l-175 -526c-47 -141 -99 -164 -239 -164v132c69 0 95 10 111 51zM184 567l70 158h166l-91 -158h-145z" />
    <glyph glyph-name="thorn" unicode="&#xfe;" horiz-adv-x="515" 
d="M485 286v-70c0 -130 -66 -226 -192 -226c-45 0 -76 7 -98 20v-200h-150v880h150v-215c23 22 55 35 99 35c113 0 191 -81 191 -224zM265 116c62 0 70 47 70 113v44c0 74 -16 111 -70 111s-70 -37 -70 -111v-59c0 -58 12 -98 70 -98z" />
    <glyph glyph-name="ydieresis" unicode="&#xff;" horiz-adv-x="485" 
d="M5 500h157l93 -282l85 282h150l-175 -526c-47 -141 -99 -164 -239 -164v132c69 0 95 10 111 51zM83 560v130h140v-130h-140zM283 560v130h140v-130h-140z" />
    <glyph glyph-name="OE" unicode="&#x152;" horiz-adv-x="884" 
d="M423 690h436v-138h-270v-126h240v-138h-240v-150h270v-138h-436v12c-29 -14 -64 -22 -106 -22c-157 0 -272 95 -272 301v108c0 208 115 301 272 301c42 0 77 -8 106 -22v12zM211 399v-108c0 -113 37 -163 106 -163s106 50 106 163v116c0 107 -39 155 -106 155
c-69 0 -106 -50 -106 -163z" />
    <glyph glyph-name="oe" unicode="&#x153;" horiz-adv-x="775" 
d="M622 153l110 -77c-33 -55 -82 -86 -189 -86c-59 0 -109 20 -144 57c-33 -36 -81 -57 -149 -57c-146 0 -220 88 -220 226v70c0 142 76 224 220 224c63 0 112 -19 146 -55c35 36 83 55 142 55c133 0 202 -84 202 -232v-68h-270c1 -77 35 -94 77 -94c46 0 57 14 75 37z
M250 116c59 0 70 44 70 100v70c0 65 -21 98 -70 98s-70 -34 -70 -98v-70c0 -56 11 -100 70 -100zM529 384c-36 0 -54 -27 -58 -74h119c-2 48 -16 74 -61 74z" />
    <glyph glyph-name="Ydieresis" unicode="&#x178;" horiz-adv-x="596" 
d="M0 690h191l107 -237l107 237h191l-215 -414v-276h-166v276zM128 739v130h140v-130h-140zM328 739v130h140v-130h-140z" />
    <glyph glyph-name="afii57929" unicode="&#x2bc;" horiz-adv-x="201" 
d="M178 500v-146l-156 -133v279h156z" />
    <glyph glyph-name="tilde" unicode="&#x2dc;" horiz-adv-x="445" 
d="M286 557c-54 0 -87 30 -119 30c-19 0 -35 -9 -49 -27l-78 66c31 39 77 66 123 66c48 0 84 -30 118 -30c17 0 32 8 47 27l77 -66c-29 -38 -74 -66 -119 -66z" />
    <glyph glyph-name="endash" unicode="&#x2013;" horiz-adv-x="509" 
d="M60 215v148h389v-148h-389z" />
    <glyph glyph-name="emdash" unicode="&#x2014;" horiz-adv-x="719" 
d="M20 215v148h679v-148h-679z" />
    <glyph glyph-name="quoteleft" unicode="&#x2018;" horiz-adv-x="256" 
d="M40 534v156l156 133v-289h-156z" />
    <glyph glyph-name="quoteright" unicode="&#x2019;" horiz-adv-x="262" 
d="M196 690v-156l-156 -133v289h156z" />
    <glyph glyph-name="quotedblleft" unicode="&#x201c;" horiz-adv-x="386" 
d="M0 534v156l156 133v-289h-156zM186 534v156l156 133v-289h-156z" />
    <glyph glyph-name="quotedblright" unicode="&#x201d;" horiz-adv-x="386" 
d="M342 690v-156l-156 -133v289h156zM156 690v-156l-156 -133v289h156z" />
    <glyph glyph-name="quotedblbase" unicode="&#x201e;" horiz-adv-x="448" 
d="M402 156v-156l-156 -133v289h156zM216 156v-156l-156 -133v289h156z" />
    <glyph glyph-name="bullet" unicode="&#x2022;" horiz-adv-x="295" 
d="M18 341c0 72 59 131 131 131s131 -59 131 -131s-59 -131 -131 -131s-131 59 -131 131z" />
    <glyph glyph-name="ellipsis" unicode="&#x2026;" horiz-adv-x="928" 
d="M236 176v-176h-176v176h176zM868 176v-176h-176v176h176zM552 176v-176h-176v176h176z" />
    <glyph glyph-name="perthousand" horiz-adv-x="1145" 
d="M509 690h143l-385 -690h-144zM756 204v-67c0 -90 -43 -147 -155 -147c-101 0 -153 50 -153 147v67c0 97 54 145 153 145c102 0 155 -47 155 -145zM602 90c21 0 31 10 31 47v64c0 37 -10 47 -31 47c-20 0 -30 -10 -30 -47v-64c0 -37 10 -47 30 -47zM328 555v-67
c0 -90 -43 -147 -155 -147c-101 0 -153 50 -153 147v67c0 97 54 145 153 145c102 0 155 -47 155 -145zM174 441c21 0 31 10 31 47v64c0 37 -10 47 -31 47c-20 0 -30 -10 -30 -47v-64c0 -37 10 -47 30 -47zM1102 204v-67c0 -90 -43 -147 -155 -147c-101 0 -153 50 -153 147
v67c0 97 54 145 153 145c102 0 155 -47 155 -145zM948 90c21 0 31 10 31 47v64c0 37 -10 47 -31 47c-20 0 -30 -10 -30 -47v-64c0 -37 10 -47 30 -47z" />
    <glyph glyph-name="guilsinglleft" unicode="&#x2039;" horiz-adv-x="330" 
d="M30 283l232 231v-162l-70 -69l70 -69v-162z" />
    <glyph glyph-name="guilsinglright" unicode="&#x203a;" horiz-adv-x="330" 
d="M58 514l232 -231l-232 -231v162l70 69l-70 69v162z" />
    <glyph glyph-name="uni2074" horiz-adv-x="354" 
d="M135 690h120l-123 -194h35v39h104v-39h39v-81h-39v-41h-104v41h-164v74z" />
    <glyph glyph-name="Euro" unicode="&#x20ac;" 
d="M11 319h70v42h-70v128h76c22 145 104 211 236 211c137 0 209 -73 224 -223h-158c-5 45 -19 85 -66 85c-42 0 -63 -21 -71 -73h95v-128h-100v-42h100v-128h-93c9 -44 29 -63 69 -63c39 0 59 25 66 85h158c-15 -150 -78 -223 -224 -223c-129 0 -210 64 -234 201h-78v128z
" />
    <glyph glyph-name="afii61352" horiz-adv-x="945" 
d="M932 538v-49c0 -94 -47 -163 -155 -163c-100 0 -154 64 -154 163v49c0 103 56 162 154 162c100 0 155 -59 155 -162zM648 143v142h259v-142h-259zM777 438c23 0 29 22 29 55v41c0 40 -8 54 -29 54c-20 0 -29 -15 -29 -54v-41c0 -34 3 -55 29 -55zM433 690h156v-690h-134
l-254 382v-382h-156v690h132l256 -387v387z" />
    <glyph glyph-name="trademark" unicode="&#x2122;" horiz-adv-x="924" 
d="M528 690l110 -194l110 194h125v-417h-131v155l-60 -98h-94l-54 98v-155h-131v417h125zM21 690h358v-116h-113v-301h-131v301h-114v116z" />
    <glyph glyph-name="dollar.fitted" horiz-adv-x="577" 
d="M542 587l-123 -88c-17 28 -36 45 -62 54v-145c137 -43 190 -99 190 -212c0 -108 -62 -183 -179 -201v-111h-136v111c-87 10 -151 43 -202 108l124 87c24 -31 52 -49 89 -57v150c-135 45 -192 109 -192 218c0 99 56 176 181 194v117h136v-118c76 -14 136 -49 174 -107z
M217 502c0 -20 8 -35 26 -49v97c-18 -11 -26 -28 -26 -48zM381 188c0 19 -7 33 -24 47v-92c17 11 24 27 24 45z" />
    <glyph glyph-name="Euro.fitted" horiz-adv-x="650" 
d="M10 319h84v42h-84v128h92c29 145 132 211 264 211c137 0 231 -73 254 -223h-158c-7 44 -37 85 -96 85c-47 0 -79 -23 -95 -73h125v-128h-136v-42h136v-128h-121c17 -42 47 -63 91 -63c59 0 86 30 96 85h158c-24 -155 -108 -223 -254 -223c-129 0 -230 64 -262 201h-94
v128z" />
    <glyph glyph-name="cent.fitted" horiz-adv-x="447" 
d="M331 157l111 -77c-28 -45 -65 -70 -120 -80v-116h-134v117c-103 25 -158 107 -158 219v62c0 120 53 193 158 216v124h134v-122c52 -11 94 -37 120 -80l-112 -78c-14 20 -31 38 -68 38c-66 0 -82 -37 -82 -111v-36c0 -66 8 -113 82 -113c34 0 53 11 69 37z" />
    <glyph glyph-name="sterling.fitted" horiz-adv-x="554" 
d="M25 0v138h73v120h-73v138h73v41c0 195 96 263 224 263c100 0 165 -32 217 -112l-135 -76c-15 22 -39 50 -73 50c-36 0 -67 -28 -67 -125v-41h120v-138h-120v-120h250v-138h-489z" />
    <glyph glyph-name="yen.fitted" horiz-adv-x="616" 
d="M80 234h145v42h-145v128h78l-148 286h191l107 -237l107 237h191l-149 -286h79v-128h-145v-42h145v-128h-145v-106h-166v106h-145v128z" />
    <glyph glyph-name="currency.fitted" horiz-adv-x="601" 
d="M101 366c0 30 6 58 18 84l-84 84l97 97l83 -83c25 12 54 19 85 19c30 0 59 -7 85 -19l84 84l97 -97l-84 -84c12 -26 19 -55 19 -85c0 -31 -7 -59 -19 -85l84 -84l-97 -97l-85 84c-25 -12 -54 -18 -84 -18c-31 0 -59 6 -85 18l-83 -83l-97 97l84 84c-12 25 -18 54 -18 84z
M219 366c0 -47 35 -85 81 -85c48 0 83 38 83 85s-35 85 -83 85c-46 0 -81 -38 -81 -85z" />
    <glyph glyph-name="numbersign.fitted" horiz-adv-x="601" 
d="M57 504h92l35 186h147l-35 -186h70l35 186h148l-35 -186h66v-128h-90l-11 -62h64v-128h-88l-35 -186h-147l34 186h-70l-34 -186h-148l35 186h-70v128h94l11 62h-68v128zM272 376l-11 -62h70l11 62h-70z" />
    <glyph glyph-name="uniF639" horiz-adv-x="596" 
d="M546 220c0 -168 -114 -230 -248 -230s-248 62 -248 230v250c0 178 114 230 248 230s248 -52 248 -229v-251zM215 451v-212c0 -74 20 -111 83 -111c62 0 82 37 82 111v212c0 74 -20 111 -82 111c-63 0 -83 -37 -83 -111z" />
    <glyph glyph-name="uniF63A" horiz-adv-x="524" 
d="M472 138v-138h-435v98l225 265c41 48 57 87 57 130c0 48 -34 71 -73 71c-41 0 -69 -25 -73 -71h-143c0 120 101 207 226 207c131 0 228 -93 228 -206c0 -95 -60 -168 -105 -220l-118 -136h211z" />
    <glyph glyph-name="uniF63B" horiz-adv-x="524" 
d="M185 287v138h54c42 0 80 22 80 71c0 43 -31 68 -73 68c-41 0 -65 -25 -73 -61h-143c7 114 100 197 226 197c131 0 228 -93 228 -194c0 -81 -52 -126 -90 -148c56 -30 100 -83 100 -163c0 -114 -78 -205 -230 -205s-239 85 -244 201h143c6 -38 36 -63 88 -63s78 35 78 79
c0 51 -29 80 -90 80h-54z" />
    <glyph glyph-name="uniF63C" horiz-adv-x="566" 
d="M243 690h185l-208 -460h99v163h166v-163h63v-138h-63v-92h-166v92h-309v113z" />
    <glyph glyph-name="uniF63D" horiz-adv-x="546" 
d="M278 342c-31 0 -48 -18 -61 -51h-149v399h413v-146h-250v-88c18 14 46 32 98 32c95 0 177 -74 177 -244c0 -175 -75 -254 -223 -254c-120 0 -225 61 -238 195h164c9 -36 29 -57 69 -57c39 0 62 37 62 106c0 73 -19 108 -62 108z" />
    <glyph glyph-name="uniF63E" horiz-adv-x="556" 
d="M415 690l-150 -274c23 9 41 12 68 12c104 0 193 -87 193 -208c0 -168 -114 -230 -247 -230c-135 0 -249 62 -249 230c0 57 20 124 71 216l138 254h176zM196 211c0 -48 25 -83 83 -83c57 0 81 35 81 83s-24 83 -81 83c-58 0 -83 -35 -83 -83z" />
    <glyph glyph-name="uniF63F" horiz-adv-x="463" 
d="M153 451h-138v239h438v-108l-189 -582h-171l190 552h-130v-101z" />
    <glyph glyph-name="uniF640" horiz-adv-x="556" 
d="M30 191c0 78 47 141 101 167c-55 29 -91 88 -91 153c0 125 114 189 238 189s238 -64 238 -189c0 -65 -37 -124 -92 -153c56 -26 102 -89 102 -167c0 -132 -110 -201 -248 -201s-248 69 -248 201zM195 211c0 -47 35 -84 83 -84c46 0 83 37 83 84c0 51 -43 83 -83 83
c-41 0 -83 -32 -83 -83zM204 490c0 -41 33 -74 74 -74c40 0 73 33 73 74c0 40 -33 72 -73 72c-41 0 -74 -32 -74 -72z" />
    <glyph glyph-name="uniF641" horiz-adv-x="556" 
d="M141 0l150 274c-23 -9 -41 -12 -68 -12c-104 0 -193 87 -193 208c0 168 114 230 247 230c135 0 249 -62 249 -230c0 -57 -20 -124 -71 -216l-138 -254h-176zM360 479c0 48 -25 83 -83 83c-57 0 -81 -35 -81 -83s24 -83 81 -83c58 0 83 35 83 83z" />
    <glyph glyph-name="uniF6BA" horiz-adv-x="319" 
d="M30 279v132h259v-132h-259z" />
    <glyph glyph-name="uniF6BB" horiz-adv-x="509" 
d="M60 271v148h389v-148h-389z" />
    <glyph glyph-name="uniF6BC" horiz-adv-x="719" 
d="M20 271v148h679v-148h-679z" />
    <glyph glyph-name="uniF6DC" horiz-adv-x="350" 
d="M290 690v-690h-166v521l-99 -61v154l119 76h146z" />
    <glyph glyph-name="e.ss01" horiz-adv-x="485" 
d="M332 153l110 -77c-35 -61 -95 -86 -186 -86c-158 0 -226 102 -226 226v70c0 155 80 224 210 224c155 0 210 -77 210 -171c0 -87 -55 -150 -209 -150h-59c5 -45 22 -73 75 -73c47 0 57 14 75 37zM241 384c-43 0 -60 -34 -61 -89h61c38 0 59 16 59 44s-18 45 -59 45z" />
    <glyph glyph-name="aacute.ss01" horiz-adv-x="515" 
d="M30 216v70c0 147 80 224 196 224c39 0 70 -10 94 -26v16h150v-500h-150v22c-25 -21 -57 -32 -94 -32c-128 0 -196 92 -196 226zM250 116c62 0 70 47 70 113v55c0 67 -19 100 -70 100c-54 0 -70 -37 -70 -111v-44c0 -66 8 -113 70 -113zM180 567l70 158h166l-91 -158h-145
z" />
    <glyph glyph-name="acircumflex.ss01" horiz-adv-x="515" 
d="M30 216v70c0 147 80 224 196 224c39 0 70 -10 94 -26v16h150v-500h-150v22c-25 -21 -57 -32 -94 -32c-128 0 -196 92 -196 226zM250 116c62 0 70 47 70 113v55c0 67 -19 100 -70 100c-54 0 -70 -37 -70 -111v-44c0 -66 8 -113 70 -113zM197 709h106l111 -142h-122l-42 57
l-42 -57h-122z" />
    <glyph glyph-name="atilde.ss01" horiz-adv-x="515" 
d="M30 216v70c0 147 80 224 196 224c39 0 70 -10 94 -26v16h150v-500h-150v22c-25 -21 -57 -32 -94 -32c-128 0 -196 92 -196 226zM250 116c62 0 70 47 70 113v55c0 67 -19 100 -70 100c-54 0 -70 -37 -70 -111v-44c0 -66 8 -113 70 -113zM326 557c-54 0 -87 30 -119 30
c-19 0 -35 -9 -49 -27l-78 66c31 39 77 66 123 66c48 0 84 -30 118 -30c17 0 32 8 47 27l77 -66c-29 -38 -74 -66 -119 -66z" />
    <glyph glyph-name="adieresis.ss01" horiz-adv-x="515" 
d="M30 216v70c0 147 80 224 196 224c39 0 70 -10 94 -26v16h150v-500h-150v22c-25 -21 -57 -32 -94 -32c-128 0 -196 92 -196 226zM250 116c62 0 70 47 70 113v55c0 67 -19 100 -70 100c-54 0 -70 -37 -70 -111v-44c0 -66 8 -113 70 -113zM90 560v130h140v-130h-140z
M290 560v130h140v-130h-140z" />
    <glyph glyph-name="aring.ss01" horiz-adv-x="515" 
d="M30 216v70c0 147 80 224 196 224c39 0 70 -10 94 -26v16h150v-500h-150v22c-25 -21 -57 -32 -94 -32c-128 0 -196 92 -196 226zM250 116c62 0 70 47 70 113v55c0 67 -19 100 -70 100c-54 0 -70 -37 -70 -111v-44c0 -66 8 -113 70 -113zM134 646c0 65 49 110 129 110
c81 0 130 -45 130 -110c0 -64 -49 -109 -130 -109c-80 0 -129 45 -129 109zM236 646c0 -25 8 -37 27 -37c20 0 27 12 27 37c0 26 -7 37 -27 37c-19 0 -27 -11 -27 -37z" />
    <glyph glyph-name="egrave.ss01" horiz-adv-x="485" 
d="M332 153l110 -77c-35 -61 -95 -86 -186 -86c-158 0 -226 102 -226 226v70c0 155 80 224 210 224c155 0 210 -77 210 -171c0 -87 -55 -150 -209 -150h-59c5 -45 22 -73 75 -73c47 0 57 14 75 37zM241 384c-43 0 -60 -34 -61 -89h61c38 0 59 16 59 44s-18 45 -59 45z
M270 725l70 -158h-145l-91 158h166z" />
    <glyph glyph-name="eacute.ss01" horiz-adv-x="485" 
d="M332 153l110 -77c-35 -61 -95 -86 -186 -86c-158 0 -226 102 -226 226v70c0 155 80 224 210 224c155 0 210 -77 210 -171c0 -87 -55 -150 -209 -150h-59c5 -45 22 -73 75 -73c47 0 57 14 75 37zM241 384c-43 0 -60 -34 -61 -89h61c38 0 59 16 59 44s-18 45 -59 45z
M167 567l70 158h166l-91 -158h-145z" />
    <glyph glyph-name="ecircumflex.ss01" horiz-adv-x="485" 
d="M332 153l110 -77c-35 -61 -95 -86 -186 -86c-158 0 -226 102 -226 226v70c0 155 80 224 210 224c155 0 210 -77 210 -171c0 -87 -55 -150 -209 -150h-59c5 -45 22 -73 75 -73c47 0 57 14 75 37zM241 384c-43 0 -60 -34 -61 -89h61c38 0 59 16 59 44s-18 45 -59 45z
M197 709h106l111 -142h-122l-42 57l-42 -57h-122z" />
    <glyph glyph-name="edieresis.ss01" horiz-adv-x="485" 
d="M332 153l110 -77c-35 -61 -95 -86 -186 -86c-158 0 -226 102 -226 226v70c0 155 80 224 210 224c155 0 210 -77 210 -171c0 -87 -55 -150 -209 -150h-59c5 -45 22 -73 75 -73c47 0 57 14 75 37zM241 384c-43 0 -60 -34 -61 -89h61c38 0 59 16 59 44s-18 45 -59 45z
M83 560v130h140v-130h-140zM283 560v130h140v-130h-140z" />
    <glyph glyph-name="agrave.ss01" horiz-adv-x="515" 
d="M30 216v70c0 147 80 224 196 224c39 0 70 -10 94 -26v16h150v-500h-150v22c-25 -21 -57 -32 -94 -32c-128 0 -196 92 -196 226zM250 116c62 0 70 47 70 113v55c0 67 -19 100 -70 100c-54 0 -70 -37 -70 -111v-44c0 -66 8 -113 70 -113zM297 725l70 -158h-145l-91 158h166
z" />
    <glyph glyph-name="a.ss01" horiz-adv-x="515" 
d="M30 216v70c0 147 80 224 196 224c39 0 70 -10 94 -26v16h150v-500h-150v22c-25 -21 -57 -32 -94 -32c-128 0 -196 92 -196 226zM250 116c62 0 70 47 70 113v55c0 67 -19 100 -70 100c-54 0 -70 -37 -70 -111v-44c0 -66 8 -113 70 -113z" />
    </font>
</defs>
</svg>
